<svg width="30" height="30" viewBox="0 0 30 30" fill="none" xmlns="http://www.w3.org/2000/svg">
<path fill-rule="evenodd" clip-rule="evenodd" d="M3.94737 0.0833333C3.94737 0.129167 3.80526 0.166667 3.63158 0.166667C3.45789 0.166667 3.31579 0.204167 3.31579 0.25C3.31579 0.295833 3.24474 0.333333 3.15789 0.333333C3.07105 0.333333 3 0.370833 3 0.416667C3 0.4625 2.92895 0.5 2.84211 0.5C2.75526 0.5 2.68421 0.5375 2.68421 0.583333C2.68421 0.629167 2.61316 0.666667 2.52632 0.666667C2.43947 0.666667 2.36842 0.704167 2.36842 0.75C2.36842 0.795833 2.31458 0.833333 2.24874 0.833333C2.10316 0.833333 0.947368 2.037 0.947368 2.18858C0.947368 2.248 0.876316 2.35058 0.789474 2.41667C0.702632 2.48275 0.631579 2.6035 0.631579 2.68508C0.631579 2.76658 0.596053 2.83333 0.552632 2.83333C0.509211 2.83333 0.473684 2.90833 0.473684 3C0.473684 3.09167 0.438158 3.16667 0.394737 3.16667C0.351316 3.16667 0.315789 3.31667 0.315789 3.5C0.315789 3.68333 0.280263 3.83333 0.236842 3.83333C0.193421 3.83333 0.157895 4.02083 0.157895 4.25C0.157895 4.47917 0.122368 4.66667 0.0789474 4.66667C0.0267632 4.66667 0 7.86108 0 14.0833C0 20.3056 0.0267632 23.5 0.0789474 23.5C0.122368 23.5 0.157895 23.6875 0.157895 23.9167C0.157895 24.1458 0.193421 24.3333 0.236842 24.3333C0.280263 24.3333 0.315789 24.4833 0.315789 24.6667C0.315789 24.85 0.351316 25 0.394737 25C0.438158 25 0.473684 25.075 0.473684 25.1667C0.473684 25.2583 0.509211 25.3333 0.552632 25.3333C0.596053 25.3333 0.631579 25.4001 0.631579 25.4816C0.631579 25.5632 0.702632 25.6839 0.789474 25.75C0.876316 25.8161 0.947368 25.9187 0.947368 25.9781C0.947368 26.1297 2.10316 27.3333 2.24874 27.3333C2.31458 27.3333 2.36842 27.3708 2.36842 27.4167C2.36842 27.4625 2.43947 27.5 2.52632 27.5C2.61316 27.5 2.68421 27.5375 2.68421 27.5833C2.68421 27.6292 2.75526 27.6667 2.84211 27.6667C2.92895 27.6667 3 27.7042 3 27.75C3 27.7958 3.07105 27.8333 3.15789 27.8333C3.24474 27.8333 3.31579 27.8708 3.31579 27.9167C3.31579 27.9625 3.45789 28 3.63158 28C3.80526 28 3.94737 28.0375 3.94737 28.0833C3.94737 28.1383 6.35613 28.1667 11.0158 28.1667H18.0842L18.3579 27.8777C18.5084 27.7189 18.6316 27.5314 18.6316 27.4611C18.6316 27.3908 18.6671 27.3333 18.7105 27.3333C18.7539 27.3333 18.7895 27.2208 18.7895 27.0833C18.7895 26.9458 18.7539 26.8333 18.7105 26.8333C18.6671 26.8333 18.6316 26.7758 18.6316 26.7056C18.6316 26.6353 18.5084 26.4478 18.3579 26.2889L18.0842 26H11.1737C6.61926 26 4.26316 25.9716 4.26316 25.9167C4.26316 25.8708 4.15658 25.8333 4.02632 25.8333C3.89605 25.8333 3.78947 25.7958 3.78947 25.75C3.78947 25.7042 3.72624 25.6667 3.64903 25.6667C3.57174 25.6667 3.45734 25.5917 3.39474 25.5C3.33213 25.4083 3.23384 25.3333 3.17637 25.3333C3.03229 25.3333 2.68421 24.9529 2.68421 24.7954C2.68421 24.7246 2.64868 24.6667 2.60526 24.6667C2.56184 24.6667 2.52632 24.5917 2.52632 24.5C2.52632 24.4083 2.49079 24.3333 2.44737 24.3333C2.40395 24.3333 2.36842 24.2583 2.36842 24.1667C2.36842 24.075 2.33289 24 2.28947 24C2.23737 24 2.21053 21.1111 2.21053 15.5V7H15H27.7895V14.8333C27.7895 20 27.8163 22.6667 27.8684 22.6667C27.9118 22.6667 27.9474 22.7621 27.9474 22.8788C27.9474 22.9954 28.0346 23.1829 28.1412 23.2954C28.2478 23.4079 28.4254 23.5 28.5359 23.5C28.6464 23.5 28.7368 23.5375 28.7368 23.5833C28.7368 23.6292 28.8079 23.6667 28.8947 23.6667C28.9816 23.6667 29.0526 23.6292 29.0526 23.5833C29.0526 23.5375 29.143 23.5 29.2536 23.5C29.3641 23.5 29.5417 23.4079 29.6483 23.2954C29.7549 23.1829 29.8421 22.9954 29.8421 22.8788C29.8421 22.7621 29.8776 22.6667 29.9211 22.6667C29.9732 22.6667 30 19.6111 30 13.6667C30 7.72225 29.9732 4.66667 29.9211 4.66667C29.8776 4.66667 29.8421 4.47917 29.8421 4.25C29.8421 4.02083 29.8066 3.83333 29.7632 3.83333C29.7197 3.83333 29.6842 3.68333 29.6842 3.5C29.6842 3.31667 29.6487 3.16667 29.6053 3.16667C29.5618 3.16667 29.5263 3.09167 29.5263 3C29.5263 2.90833 29.4908 2.83333 29.4474 2.83333C29.4039 2.83333 29.3684 2.76658 29.3684 2.68508C29.3684 2.6035 29.2974 2.48275 29.2105 2.41667C29.1237 2.35058 29.0526 2.248 29.0526 2.18858C29.0526 2.037 27.8968 0.833333 27.7513 0.833333C27.6854 0.833333 27.6316 0.795833 27.6316 0.75C27.6316 0.704167 27.5605 0.666667 27.4737 0.666667C27.3868 0.666667 27.3158 0.629167 27.3158 0.583333C27.3158 0.5375 27.2447 0.5 27.1579 0.5C27.0711 0.5 27 0.4625 27 0.416667C27 0.370833 26.9289 0.333333 26.8421 0.333333C26.7553 0.333333 26.6842 0.295833 26.6842 0.25C26.6842 0.204167 26.5421 0.166667 26.3684 0.166667C26.1947 0.166667 26.0526 0.129167 26.0526 0.0833333C26.0526 0.0281667 22.3158 0 15 0C7.68418 0 3.94737 0.0281667 3.94737 0.0833333ZM5.05263 2.25C5.05263 2.29583 5.10845 2.33333 5.17666 2.33333C5.24495 2.33333 5.35153 2.38692 5.4135 2.45242C5.47555 2.51783 5.52632 2.63033 5.52632 2.70242C5.52632 2.77442 5.56184 2.83333 5.60526 2.83333C5.64987 2.83333 5.68421 3.07033 5.68421 3.37775C5.68421 3.88792 5.66692 3.94042 5.4105 4.21108C5.15408 4.48175 5.10434 4.5 4.62103 4.5C4.32979 4.5 4.10526 4.46375 4.10526 4.41667C4.10526 4.37083 4.04945 4.33333 3.98124 4.33333C3.82168 4.33333 3.63158 4.13267 3.63158 3.96425C3.63158 3.89225 3.59605 3.83333 3.55263 3.83333C3.50921 3.83333 3.47368 3.62583 3.47368 3.37225C3.47368 2.95717 3.501 2.88225 3.74739 2.62225C3.89787 2.46333 4.0755 2.33333 4.14213 2.33333C4.20868 2.33333 4.26316 2.29583 4.26316 2.25C4.26316 2.20417 4.44079 2.16667 4.65789 2.16667C4.875 2.16667 5.05263 2.20417 5.05263 2.25ZM8.68421 2.25C8.68421 2.29583 8.74003 2.33333 8.80824 2.33333C8.87653 2.33333 8.9831 2.38692 9.04508 2.45242C9.10713 2.51783 9.15789 2.63033 9.15789 2.70242C9.15789 2.77442 9.19342 2.83333 9.23684 2.83333C9.28074 2.83333 9.31579 3.05558 9.31579 3.33333C9.31579 3.61108 9.28074 3.83333 9.23684 3.83333C9.19342 3.83333 9.15789 3.89125 9.15789 3.96208C9.15789 4.03292 9.07066 4.18292 8.96408 4.29542C8.79482 4.47417 8.6996 4.5 8.21053 4.5C7.72145 4.5 7.62624 4.47417 7.45697 4.29542C7.35039 4.18292 7.26316 4.03292 7.26316 3.96208C7.26316 3.89125 7.22763 3.83333 7.18421 3.83333C7.14032 3.83333 7.10526 3.61108 7.10526 3.33333C7.10526 3.05558 7.14032 2.83333 7.18421 2.83333C7.22763 2.83333 7.26316 2.77442 7.26316 2.70242C7.26316 2.534 7.45326 2.33333 7.61282 2.33333C7.68103 2.33333 7.73684 2.29583 7.73684 2.25C7.73684 2.20367 7.94739 2.16667 8.21053 2.16667C8.47366 2.16667 8.68421 2.20367 8.68421 2.25ZM12.1579 2.25C12.1579 2.29583 12.2137 2.33333 12.2819 2.33333C12.4415 2.33333 12.6316 2.534 12.6316 2.70242C12.6316 2.77442 12.6671 2.83333 12.7105 2.83333C12.7551 2.83333 12.7895 3.07033 12.7895 3.37775C12.7895 3.88792 12.7722 3.94042 12.5158 4.21108C12.2593 4.48175 12.2096 4.5 11.7263 4.5C11.4351 4.5 11.2105 4.46375 11.2105 4.41667C11.2105 4.37083 11.1547 4.33333 11.0865 4.33333C10.9269 4.33333 10.7368 4.13267 10.7368 3.96425C10.7368 3.89225 10.7013 3.83333 10.6579 3.83333C10.614 3.83333 10.5789 3.61108 10.5789 3.33333C10.5789 3.05558 10.614 2.83333 10.6579 2.83333C10.7013 2.83333 10.7368 2.77442 10.7368 2.70242C10.7368 2.534 10.9269 2.33333 11.0865 2.33333C11.1547 2.33333 11.2105 2.29583 11.2105 2.25C11.2105 2.20367 11.4211 2.16667 11.6842 2.16667C11.9473 2.16667 12.1579 2.20367 12.1579 2.25ZM9.31579 11.25C9.31579 11.2963 9.10524 11.3333 8.8421 11.3333C8.57897 11.3333 8.36842 11.3703 8.36842 11.4167C8.36842 11.4625 8.26184 11.5 8.13158 11.5C8.00132 11.5 7.89474 11.5375 7.89474 11.5833C7.89474 11.6292 7.8315 11.6667 7.75429 11.6667C7.677 11.6667 7.5626 11.7417 7.5 11.8333C7.43739 11.925 7.33997 12 7.28353 12C7.14971 12 6.31579 12.8803 6.31579 13.0215C6.31579 13.0811 6.24474 13.1839 6.15789 13.25C6.06521 13.3206 6 13.4657 6 13.6017C6 13.7291 5.96447 13.8333 5.92105 13.8333C5.87763 13.8333 5.84211 13.9083 5.84211 14C5.84211 14.0917 5.80658 14.1667 5.76316 14.1667C5.71974 14.1667 5.68421 14.3542 5.68421 14.5833C5.68421 14.8125 5.64868 15 5.60526 15C5.55845 15 5.52632 15.3056 5.52632 15.75C5.52632 16.1944 5.55845 16.5 5.60526 16.5C5.64868 16.5 5.68421 16.6875 5.68421 16.9167C5.68421 17.1458 5.71974 17.3333 5.76316 17.3333C5.80658 17.3333 5.84211 17.4083 5.84211 17.5C5.84211 17.5917 5.87763 17.6667 5.92105 17.6667C5.96447 17.6667 6 17.7417 6 17.8333C6 17.925 6.03553 18 6.07895 18C6.12237 18 6.15789 18.075 6.15789 18.1667C6.15789 18.2583 6.19342 18.3333 6.23684 18.3333C6.28026 18.3333 6.31579 18.3906 6.31579 18.4605C6.31579 18.6156 6.98147 19.3333 7.12524 19.3333C7.18192 19.3333 7.2795 19.4083 7.3421 19.5C7.40471 19.5917 7.51911 19.6667 7.59639 19.6667C7.67361 19.6667 7.73684 19.7042 7.73684 19.75C7.73684 19.7958 7.80789 19.8333 7.89474 19.8333C7.98158 19.8333 8.05263 19.8708 8.05263 19.9167C8.05263 19.9625 8.15921 20 8.28947 20C8.41974 20 8.52632 20.0375 8.52632 20.0833C8.52632 20.1377 9.73682 20.1667 12 20.1667C14.2632 20.1667 15.4737 20.1377 15.4737 20.0833C15.4737 20.0375 15.5803 20 15.7105 20C15.8408 20 15.9474 19.9625 15.9474 19.9167C15.9474 19.8708 16.0184 19.8333 16.1053 19.8333C16.1921 19.8333 16.2632 19.7958 16.2632 19.75C16.2632 19.7042 16.3264 19.6667 16.4036 19.6667C16.4809 19.6667 16.5953 19.5917 16.6579 19.5C16.7205 19.4083 16.8183 19.3333 16.8753 19.3333C16.9323 19.3333 17.1021 19.2033 17.2526 19.0444C17.4032 18.8856 17.5263 18.7063 17.5263 18.6462C17.5263 18.586 17.5974 18.4828 17.6842 18.4167C17.7711 18.3506 17.8421 18.2298 17.8421 18.1483C17.8421 18.0668 17.8776 18 17.9211 18C17.9645 18 18 17.925 18 17.8333C18 17.7417 18.0355 17.6667 18.0789 17.6667C18.1224 17.6667 18.1579 17.5542 18.1579 17.4167C18.1579 17.2792 18.1934 17.1667 18.2368 17.1667C18.2807 17.1667 18.3158 16.9444 18.3158 16.6667C18.3158 16.3889 18.3508 16.1667 18.3947 16.1667C18.4382 16.1667 18.4737 15.9792 18.4737 15.75C18.4737 15.5208 18.4382 15.3333 18.3947 15.3333C18.3513 15.3333 18.3158 15.2583 18.3158 15.1667C18.3158 15.075 18.2803 15 18.2368 15C18.1934 15 18.1579 14.925 18.1579 14.8333C18.1579 14.7048 18.1052 14.6667 17.9276 14.6667C17.801 14.6667 17.6766 14.6198 17.6513 14.5625C17.6145 14.4792 17.596 14.4792 17.5592 14.5625C17.5339 14.6198 17.4248 14.6667 17.3167 14.6667C17.0941 14.6667 16.8947 14.841 16.8947 15.0358C16.8947 15.1078 16.8592 15.1667 16.8158 15.1667C16.7684 15.1667 16.7368 15.5 16.7368 16C16.7368 16.5 16.7053 16.8333 16.6579 16.8333C16.6145 16.8333 16.5789 16.9083 16.5789 17C16.5789 17.0917 16.5434 17.1667 16.5 17.1667C16.4566 17.1667 16.4211 17.2239 16.4211 17.2938C16.4211 17.4593 15.7509 18.1667 15.5942 18.1667C15.5279 18.1667 15.4737 18.2042 15.4737 18.25C15.4737 18.2958 15.4026 18.3333 15.3158 18.3333C15.2289 18.3333 15.1579 18.3708 15.1579 18.4167C15.1579 18.4708 14.0526 18.5 12 18.5C9.94737 18.5 8.8421 18.4708 8.8421 18.4167C8.8421 18.3708 8.75266 18.3333 8.64324 18.3333C8.41989 18.3333 7.42105 17.3471 7.42105 17.1266C7.42105 17.0569 7.38553 17 7.3421 17C7.293 17 7.26316 16.5278 7.26316 15.75C7.26316 14.9723 7.293 14.5 7.3421 14.5C7.38553 14.5 7.42105 14.4332 7.42105 14.3517C7.42105 14.2702 7.4921 14.1494 7.57895 14.0833C7.66579 14.0173 7.73684 13.9126 7.73684 13.8507C7.73684 13.7056 7.9316 13.5 8.06905 13.5C8.12771 13.5 8.22687 13.425 8.28947 13.3333C8.35208 13.2417 8.46647 13.1667 8.54376 13.1667C8.62097 13.1667 8.68421 13.1292 8.68421 13.0833C8.68421 13.0308 9.21055 13 10.1053 13C11 13 11.5263 12.9692 11.5263 12.9167C11.5263 12.8708 11.5812 12.8333 11.6483 12.8333C11.7154 12.8333 11.8575 12.7413 11.9641 12.6288C12.3675 12.203 12.1025 11.3333 11.5693 11.3333C11.4588 11.3333 11.3684 11.2958 11.3684 11.25C11.3684 11.1988 10.9737 11.1667 10.3421 11.1667C9.71053 11.1667 9.31579 11.1988 9.31579 11.25ZM15.7895 11.25C15.7895 11.2963 15.5789 11.3333 15.3158 11.3333C15.0527 11.3333 14.8421 11.3703 14.8421 11.4167C14.8421 11.4625 14.7711 11.5 14.6842 11.5C14.5974 11.5 14.5263 11.5375 14.5263 11.5833C14.5263 11.6292 14.4276 11.6667 14.3069 11.6667C14.1781 11.6667 14.0406 11.7355 13.9737 11.8333C13.9111 11.925 13.8137 12 13.7572 12C13.6134 12 12.7895 12.8854 12.7895 13.0398C12.7895 13.1096 12.7539 13.1667 12.7105 13.1667C12.6671 13.1667 12.6316 13.2417 12.6316 13.3333C12.6316 13.425 12.5961 13.5 12.5526 13.5C12.5092 13.5 12.4737 13.575 12.4737 13.6667C12.4737 13.7583 12.4382 13.8333 12.3947 13.8333C12.3513 13.8333 12.3158 13.9458 12.3158 14.0833C12.3158 14.2208 12.2803 14.3333 12.2368 14.3333C12.1929 14.3333 12.1579 14.5556 12.1579 14.8333C12.1579 15.1111 12.1228 15.3333 12.0789 15.3333C12.0355 15.3333 12 15.4833 12 15.6667C12 15.85 12.0355 16 12.0789 16C12.1224 16 12.1579 16.0954 12.1579 16.2121C12.1579 16.3288 12.2451 16.5163 12.3517 16.6288C12.6999 16.9963 13.5789 16.8785 13.5789 16.4643C13.5789 16.3923 13.6145 16.3333 13.6579 16.3333C13.7053 16.3333 13.7368 16 13.7368 15.5C13.7368 15 13.7684 14.6667 13.8158 14.6667C13.8592 14.6667 13.8947 14.5624 13.8947 14.4351C13.8947 14.2991 13.9599 14.1539 14.0526 14.0833C14.1395 14.0173 14.2105 13.9126 14.2105 13.8507C14.2105 13.7056 14.4053 13.5 14.5427 13.5C14.6014 13.5 14.7006 13.425 14.7632 13.3333C14.8258 13.2417 14.9402 13.1667 15.0174 13.1667C15.0947 13.1667 15.1579 13.1292 15.1579 13.0833C15.1579 13.0291 16.3158 13 18.4737 13C20.6316 13 21.7895 13.0291 21.7895 13.0833C21.7895 13.1292 21.8527 13.1667 21.9299 13.1667C22.0072 13.1667 22.1216 13.2417 22.1842 13.3333C22.2468 13.425 22.346 13.5 22.4046 13.5C22.5421 13.5 22.7368 13.7056 22.7368 13.8507C22.7368 13.9126 22.8079 14.0173 22.8947 14.0833C22.9816 14.1494 23.0526 14.2702 23.0526 14.3517C23.0526 14.4332 23.0882 14.5 23.1316 14.5C23.1807 14.5 23.2105 14.9723 23.2105 15.75C23.2105 16.5278 23.1807 17 23.1316 17C23.0882 17 23.0526 17.0569 23.0526 17.1266C23.0526 17.3471 22.0538 18.3333 21.8304 18.3333C21.721 18.3333 21.6316 18.3708 21.6316 18.4167C21.6316 18.4691 21.1176 18.5 20.2474 18.5H18.8631L18.5895 18.7889C18.239 19.1589 18.2061 19.6418 18.5096 19.9621C18.7027 20.166 18.7085 20.1667 20.3254 20.1667C21.3541 20.1667 21.9474 20.1362 21.9474 20.0833C21.9474 20.0375 22.0539 20 22.1842 20C22.3145 20 22.4211 19.9625 22.4211 19.9167C22.4211 19.8708 22.4921 19.8333 22.5789 19.8333C22.6658 19.8333 22.7368 19.7958 22.7368 19.75C22.7368 19.7042 22.8001 19.6667 22.8773 19.6667C22.9546 19.6667 23.069 19.5917 23.1316 19.5C23.1942 19.4083 23.2918 19.3333 23.3484 19.3333C23.4922 19.3333 24.1579 18.6156 24.1579 18.4605C24.1579 18.3906 24.1934 18.3333 24.2368 18.3333C24.2803 18.3333 24.3158 18.2583 24.3158 18.1667C24.3158 18.075 24.3513 18 24.3947 18C24.4382 18 24.4737 17.925 24.4737 17.8333C24.4737 17.7417 24.5092 17.6667 24.5526 17.6667C24.5961 17.6667 24.6316 17.5917 24.6316 17.5C24.6316 17.4083 24.6671 17.3333 24.7105 17.3333C24.7539 17.3333 24.7895 17.1458 24.7895 16.9167C24.7895 16.6875 24.825 16.5 24.8684 16.5C24.9152 16.5 24.9474 16.1944 24.9474 15.75C24.9474 15.3056 24.9152 15 24.8684 15C24.825 15 24.7895 14.8125 24.7895 14.5833C24.7895 14.3542 24.7539 14.1667 24.7105 14.1667C24.6671 14.1667 24.6316 14.0917 24.6316 14C24.6316 13.9083 24.5961 13.8333 24.5526 13.8333C24.5092 13.8333 24.4737 13.7291 24.4737 13.6017C24.4737 13.4657 24.4085 13.3206 24.3158 13.25C24.2289 13.1839 24.1579 13.0811 24.1579 13.0215C24.1579 12.8803 23.324 12 23.1902 12C23.1337 12 23.0363 11.925 22.9737 11.8333C22.9111 11.7417 22.7967 11.6667 22.7194 11.6667C22.6422 11.6667 22.5789 11.6292 22.5789 11.5833C22.5789 11.5375 22.4724 11.5 22.3421 11.5C22.2118 11.5 22.1053 11.4625 22.1053 11.4167C22.1053 11.3703 21.8947 11.3333 21.6316 11.3333C21.3684 11.3333 21.1579 11.2963 21.1579 11.25C21.1579 11.1961 20.2105 11.1667 18.4737 11.1667C16.7368 11.1667 15.7895 11.1961 15.7895 11.25ZM21.3158 22.5833C21.3158 22.6292 21.2609 22.6667 21.1938 22.6667C21.1267 22.6667 20.9846 22.7587 20.878 22.8712L20.6842 23.0758V25.5V27.9243L20.878 28.1288C21.2262 28.4963 22.1053 28.3785 22.1053 27.9643C22.1053 27.8923 22.1408 27.8333 22.1842 27.8333C22.2331 27.8333 22.2632 27.3889 22.2632 26.6667C22.2632 26.025 22.2814 25.5 22.3037 25.5C22.326 25.5 23.3025 26.5125 24.4737 27.75L26.6031 30H27.0025C27.5271 30 27.7895 29.7508 27.7895 29.2527C27.7895 28.9208 27.7478 28.8706 25.5789 26.5833C24.3632 25.3012 23.3684 24.2329 23.3684 24.2094C23.3684 24.1859 23.9207 24.1667 24.5957 24.1667C25.7934 24.1667 25.8276 24.1618 26.0167 23.9621C26.1594 23.8116 26.2105 23.6675 26.2105 23.4167C26.2105 23.0552 25.9466 22.6667 25.7009 22.6667C25.6338 22.6667 25.5789 22.6292 25.5789 22.5833C25.5789 22.5298 24.8158 22.5 23.4474 22.5C22.079 22.5 21.3158 22.5298 21.3158 22.5833Z" fill="black"/>
</svg>
