<svg width="93" height="57" viewBox="0 0 93 57" fill="none" xmlns="http://www.w3.org/2000/svg">
<path fill-rule="evenodd" clip-rule="evenodd" d="M42.1047 0.729976C41.6587 1.18802 41.4064 1.59605 41.4064 1.85847C41.4064 2.08439 41.3324 2.26944 41.242 2.26944C41.1517 2.26944 41.0777 2.56263 41.0777 2.92099C41.0777 3.27934 41.0038 3.57254 40.9134 3.57254C40.8221 3.57254 40.7491 4.00697 40.7491 4.54988C40.7491 5.09278 40.6762 5.52721 40.5848 5.52721C40.4944 5.52721 40.4205 5.89371 40.4205 6.34165C40.4205 6.78959 40.3466 7.15609 40.2562 7.15609C40.1658 7.15609 40.0919 7.52259 40.0919 7.97054C40.0919 8.41848 40.0179 8.78498 39.9276 8.78498C39.8372 8.78498 39.7632 9.15148 39.7632 9.59942C39.7632 10.0474 39.6893 10.4139 39.5989 10.4139C39.5086 10.4139 39.4346 10.7804 39.4346 11.2283C39.4346 11.6763 39.3607 12.0428 39.2703 12.0428C39.179 12.0428 39.106 12.4772 39.106 13.0201C39.106 13.563 39.0331 13.9974 38.9417 13.9974C38.8513 13.9974 38.7774 14.3639 38.7774 14.8119C38.7774 15.2598 38.7034 15.6263 38.6131 15.6263C38.5227 15.6263 38.4488 15.9928 38.4488 16.4407C38.4488 16.8887 38.3748 17.2552 38.2845 17.2552C38.1941 17.2552 38.1201 17.6217 38.1201 18.0696C38.1201 18.5176 38.0462 18.8841 37.9558 18.8841C37.8655 18.8841 37.7915 19.2506 37.7915 19.6985C37.7915 20.1465 37.7176 20.513 37.6272 20.513C37.5358 20.513 37.4629 20.9474 37.4629 21.4903C37.4629 22.0332 37.3899 22.4676 37.2986 22.4676C37.2082 22.4676 37.1343 22.8341 37.1343 23.2821C37.1343 23.73 37.0603 24.0965 36.97 24.0965C36.8796 24.0965 36.8057 24.463 36.8057 24.9109C36.8057 25.3589 36.7317 25.7254 36.6413 25.7254C36.551 25.7254 36.477 26.0919 36.477 26.5398C36.477 26.9878 36.4031 27.3543 36.3127 27.3543C36.2214 27.3543 36.1484 27.7887 36.1484 28.3316C36.1484 28.8745 36.0755 29.3089 35.9841 29.3089C35.8937 29.3089 35.8198 29.6754 35.8198 30.1234C35.8198 30.5713 35.7458 30.9378 35.6555 30.9378C35.5651 30.9378 35.4912 31.3043 35.4912 31.7523C35.4912 32.2002 35.4172 32.5667 35.3269 32.5667C35.2365 32.5667 35.1625 32.9332 35.1625 33.3812C35.1625 33.8291 35.0886 34.1956 34.9982 34.1956C34.9079 34.1956 34.8339 34.5621 34.8339 35.01C34.8339 35.458 34.76 35.8245 34.6696 35.8245C34.5783 35.8245 34.5053 36.2589 34.5053 36.8018C34.5053 37.3447 34.4323 37.7791 34.341 37.7791C34.2506 37.7791 34.1767 38.1456 34.1767 38.5936C34.1767 39.0415 34.1027 39.408 34.0124 39.408C33.922 39.408 33.8481 39.7745 33.8481 40.2225C33.8481 40.6704 33.7741 41.0369 33.6837 41.0369C33.5934 41.0369 33.5194 41.4034 33.5194 41.8514C33.5194 42.2993 33.4455 42.6658 33.3551 42.6658C33.2648 42.6658 33.1908 43.0323 33.1908 43.4802C33.1908 43.9282 33.1169 44.2947 33.0265 44.2947C32.9351 44.2947 32.8622 44.7291 32.8622 45.272C32.8622 45.8149 32.7892 46.2494 32.6979 46.2494C32.6075 46.2494 32.5336 46.6159 32.5336 47.0638C32.5336 47.5117 32.4596 47.8782 32.3693 47.8782C32.2789 47.8782 32.2049 48.2447 32.2049 48.6927C32.2049 49.1406 32.131 49.5071 32.0406 49.5071C31.9503 49.5071 31.8763 49.8736 31.8763 50.3216C31.8763 50.7695 31.8024 51.136 31.712 51.136C31.6146 51.136 31.5477 51.7333 31.5477 52.602C31.5477 53.4707 31.6146 54.068 31.712 54.068C31.8024 54.068 31.8763 54.1812 31.8763 54.3197C31.8763 54.4581 32.0579 54.7513 32.2797 54.9712C32.6019 55.2908 32.8505 55.3711 33.5175 55.3711C34.2506 55.3711 34.4212 55.3025 34.9215 54.8064C35.2348 54.4959 35.4912 54.1294 35.4912 53.9919C35.4912 53.8546 35.5651 53.7422 35.6555 53.7422C35.7458 53.7422 35.8198 53.5223 35.8198 53.2536C35.8198 52.9848 35.8937 52.7649 35.9841 52.7649C36.0745 52.7649 36.1484 52.3984 36.1484 51.9505C36.1484 51.5025 36.2223 51.136 36.3127 51.136C36.4031 51.136 36.477 50.7695 36.477 50.3216C36.477 49.8736 36.551 49.5071 36.6413 49.5071C36.7327 49.5071 36.8057 49.0727 36.8057 48.5298C36.8057 47.9869 36.8786 47.5525 36.97 47.5525C37.0603 47.5525 37.1343 47.186 37.1343 46.738C37.1343 46.2901 37.2082 45.9236 37.2986 45.9236C37.389 45.9236 37.4629 45.5571 37.4629 45.1091C37.4629 44.6612 37.5368 44.2947 37.6272 44.2947C37.7176 44.2947 37.7915 43.9282 37.7915 43.4802C37.7915 43.0323 37.8655 42.6658 37.9558 42.6658C38.0462 42.6658 38.1201 42.2993 38.1201 41.8514C38.1201 41.4034 38.1941 41.0369 38.2845 41.0369C38.3758 41.0369 38.4488 40.6025 38.4488 40.0596C38.4488 39.5167 38.5217 39.0823 38.6131 39.0823C38.7034 39.0823 38.7774 38.7158 38.7774 38.2678C38.7774 37.8199 38.8513 37.4534 38.9417 37.4534C39.0321 37.4534 39.106 37.0869 39.106 36.6389C39.106 36.191 39.1799 35.8245 39.2703 35.8245C39.3607 35.8245 39.4346 35.458 39.4346 35.01C39.4346 34.5621 39.5086 34.1956 39.5989 34.1956C39.6903 34.1956 39.7632 33.7612 39.7632 33.2183C39.7632 32.6754 39.8362 32.2409 39.9276 32.2409C40.0179 32.2409 40.0919 31.8744 40.0919 31.4265C40.0919 30.9785 40.1658 30.612 40.2562 30.612C40.3466 30.612 40.4205 30.2455 40.4205 29.7976C40.4205 29.3497 40.4944 28.9832 40.5848 28.9832C40.6752 28.9832 40.7491 28.6167 40.7491 28.1687C40.7491 27.7208 40.8231 27.3543 40.9134 27.3543C41.0038 27.3543 41.0777 26.9878 41.0777 26.5398C41.0777 26.0919 41.1517 25.7254 41.242 25.7254C41.3334 25.7254 41.4064 25.291 41.4064 24.7481C41.4064 24.2052 41.4793 23.7707 41.5707 23.7707C41.661 23.7707 41.735 23.4042 41.735 22.9563C41.735 22.5083 41.8089 22.1418 41.8993 22.1418C41.9897 22.1418 42.0636 21.7753 42.0636 21.3274C42.0636 20.8795 42.1375 20.513 42.2279 20.513C42.3183 20.513 42.3922 20.1465 42.3922 19.6985C42.3922 19.2506 42.4662 18.8841 42.5565 18.8841C42.6469 18.8841 42.7208 18.5176 42.7208 18.0696C42.7208 17.6217 42.7948 17.2552 42.8852 17.2552C42.9765 17.2552 43.0495 16.8208 43.0495 16.2779C43.0495 15.7349 43.1224 15.3005 43.2138 15.3005C43.3042 15.3005 43.3781 14.934 43.3781 14.4861C43.3781 14.0381 43.452 13.6716 43.5424 13.6716C43.6328 13.6716 43.7067 13.3051 43.7067 12.8572C43.7067 12.4093 43.7807 12.0428 43.871 12.0428C43.9614 12.0428 44.0353 11.6763 44.0353 11.2283C44.0353 10.7804 44.1093 10.4139 44.1996 10.4139C44.29 10.4139 44.364 10.0474 44.364 9.59942C44.364 9.15148 44.4379 8.78498 44.5283 8.78498C44.6196 8.78498 44.6926 8.35056 44.6926 7.80765C44.6926 7.26474 44.7655 6.83032 44.8569 6.83032C44.9473 6.83032 45.0212 6.46382 45.0212 6.01587C45.0212 5.56793 45.0951 5.20143 45.1855 5.20143C45.2759 5.20143 45.3498 4.83493 45.3498 4.38699C45.3498 3.93904 45.4238 3.57254 45.5141 3.57254C45.6045 3.57254 45.6784 3.20604 45.6784 2.7581C45.6784 2.31016 45.6045 1.94366 45.5141 1.94366C45.4238 1.94366 45.3498 1.75797 45.3498 1.53106C45.3498 1.27728 45.1303 0.900846 44.7802 0.55373C44.301 0.0785841 44.0989 -0.00921286 43.5067 0.000723339C42.8973 0.0109853 42.7093 0.108718 42.1047 0.729976ZM21.0318 4.71276C21.0318 4.80235 20.9207 4.87565 20.785 4.87565C20.6493 4.87565 15.9911 9.38343 10.4334 14.893C2.45481 22.8025 0.328622 24.996 0.328622 25.3178C0.328622 25.542 0.254682 25.7254 0.164311 25.7254C0.0739399 25.7254 0 26.0919 0 26.5398C0 26.9878 0.0739399 27.3543 0.164311 27.3543C0.254682 27.3543 0.328622 27.5009 0.328622 27.6801C0.328622 27.8592 0.402562 28.0058 0.492933 28.0058C0.583304 28.0058 0.657244 28.1159 0.657244 28.2505C0.657244 28.5702 20.4625 48.204 20.785 48.204C20.9207 48.204 21.0318 48.2773 21.0318 48.3669C21.0318 48.4599 21.5247 48.5298 22.182 48.5298C22.8392 48.5298 23.3322 48.4599 23.3322 48.3669C23.3322 48.2773 23.48 48.204 23.6608 48.204C23.8798 48.204 23.9894 48.0954 23.9894 47.8782C23.9894 47.6991 24.0633 47.5525 24.1537 47.5525C24.2441 47.5525 24.318 47.186 24.318 46.738C24.318 46.2901 24.2441 45.9236 24.1537 45.9236C24.0633 45.9236 23.9894 45.7398 23.9894 45.5154C23.9894 45.1929 22.02 43.1551 14.6227 35.8235L5.25581 26.5398L14.6227 17.2562C22.02 9.92455 23.9894 7.88681 23.9894 7.56429C23.9894 7.33983 24.0633 7.15609 24.1537 7.15609C24.2441 7.15609 24.318 6.78959 24.318 6.34165C24.318 5.89371 24.2441 5.52721 24.1537 5.52721C24.0633 5.52721 23.9894 5.38061 23.9894 5.20143C23.9894 4.9843 23.8798 4.87565 23.6608 4.87565C23.48 4.87565 23.3322 4.80235 23.3322 4.71276C23.3322 4.61975 22.8392 4.54988 22.182 4.54988C21.5247 4.54988 21.0318 4.61975 21.0318 4.71276ZM53.5654 4.71276C53.5654 4.80235 53.4175 4.87565 53.2367 4.87565C53.0177 4.87565 52.9081 4.9843 52.9081 5.20143C52.9081 5.38061 52.8342 5.52721 52.7438 5.52721C52.6534 5.52721 52.5795 5.89371 52.5795 6.34165C52.5795 6.78959 52.6534 7.15609 52.7438 7.15609C52.8342 7.15609 52.9081 7.30269 52.9081 7.48187C52.9081 7.66105 52.9821 7.80765 53.0724 7.80765C53.1628 7.80765 53.2367 7.91874 53.2367 8.05459C53.2367 8.19027 54.9397 9.98726 57.021 12.0478L60.8051 15.7941L60.3968 16.1989C60.1721 16.4215 59.8741 16.6036 59.7344 16.6036C59.5948 16.6036 59.4806 16.6769 59.4806 16.7665C59.4806 16.8561 59.349 16.9294 59.1883 16.9294C59.0274 16.9294 58.7893 17.076 58.659 17.2552C58.5287 17.4344 58.3202 17.581 58.1957 17.581C58.0713 17.581 57.762 17.8009 57.5088 18.0696C57.2556 18.3384 56.9659 18.5583 56.8652 18.5583C56.6262 18.5583 54.2226 20.941 54.2226 21.178C54.2226 21.2779 54.0008 21.5651 53.7297 21.8161C53.4586 22.0671 53.2367 22.3736 53.2367 22.4969C53.2367 22.6204 53.0889 22.8271 52.9081 22.9563C52.7274 23.0855 52.5795 23.3215 52.5795 23.4809C52.5795 23.6403 52.5056 23.7707 52.4152 23.7707C52.3248 23.7707 52.2509 23.9012 52.2509 24.0605C52.2509 24.22 52.103 24.456 51.9223 24.5852C51.7294 24.7231 51.5936 25.0069 51.5936 25.2727C51.5936 25.5216 51.5197 25.7254 51.4293 25.7254C51.339 25.7254 51.265 25.872 51.265 26.0512C51.265 26.2303 51.1911 26.3769 51.1007 26.3769C51.0103 26.3769 50.9364 26.5968 50.9364 26.8656C50.9364 27.1344 50.8625 27.3543 50.7721 27.3543C50.6817 27.3543 50.6078 27.5742 50.6078 27.8429C50.6078 28.1117 50.5338 28.3316 50.4435 28.3316C50.3531 28.3316 50.2791 28.6248 50.2791 28.9832C50.2791 29.3415 50.2052 29.6347 50.1148 29.6347C50.0235 29.6347 49.9505 30.0691 49.9505 30.612C49.9505 31.155 49.8776 31.5894 49.7862 31.5894C49.6852 31.5894 49.6219 32.4038 49.6219 33.7069C49.6219 35.01 49.6852 35.8245 49.7862 35.8245C49.8776 35.8245 49.9505 36.2589 49.9505 36.8018C49.9505 37.3447 50.0235 37.7791 50.1148 37.7791C50.2052 37.7791 50.2791 38.0723 50.2791 38.4307C50.2791 38.7891 50.3531 39.0823 50.4435 39.0823C50.5338 39.0823 50.6078 39.3022 50.6078 39.5709C50.6078 39.8397 50.6817 40.0596 50.7721 40.0596C50.8625 40.0596 50.9364 40.2795 50.9364 40.5483C50.9364 40.817 51.0103 41.0369 51.1007 41.0369C51.1911 41.0369 51.265 41.1835 51.265 41.3627C51.265 41.5419 51.339 41.6885 51.4293 41.6885C51.5197 41.6885 51.5936 41.8922 51.5936 42.1411C51.5936 42.407 51.7294 42.6907 51.9223 42.8287C52.103 42.9579 52.2509 43.1939 52.2509 43.3534C52.2509 43.5127 52.3248 43.6431 52.4152 43.6431C52.5056 43.6431 52.5795 43.7629 52.5795 43.9091C52.5795 44.0554 52.7458 44.3217 52.9492 44.5011C53.1999 44.7223 53.2528 44.8508 53.1135 44.9003C53.0006 44.9405 52.9081 45.1872 52.9081 45.4484C52.9081 45.7099 52.8342 45.9236 52.7438 45.9236C52.6534 45.9236 52.5795 46.2559 52.5795 46.6619C52.5795 47.2874 52.6668 47.4868 53.1492 47.9651C53.6814 48.4927 53.7883 48.5298 54.7785 48.5298C55.4775 48.5298 55.8634 48.4604 55.9121 48.3262C55.962 48.1881 56.0916 48.2405 56.3148 48.4891C56.4957 48.6907 56.7348 48.8556 56.846 48.8556C56.9572 48.8556 57.2556 49.0755 57.5088 49.3442C57.762 49.613 58.0713 49.8329 58.1957 49.8329C58.3202 49.8329 58.5287 49.9795 58.659 50.1587C58.7893 50.3379 59.0274 50.4845 59.1883 50.4845C59.349 50.4845 59.4806 50.5578 59.4806 50.6473C59.4806 50.7369 59.6122 50.8102 59.7729 50.8102C59.9337 50.8102 60.1718 50.9568 60.3021 51.136C60.4413 51.3272 60.7275 51.4618 60.9957 51.4618C61.2467 51.4618 61.4523 51.5351 61.4523 51.6247C61.4523 51.7143 61.6002 51.7876 61.7809 51.7876C61.9617 51.7876 62.1095 51.8609 62.1095 51.9505C62.1095 52.04 62.3314 52.1133 62.6025 52.1133C62.8736 52.1133 63.0954 52.1866 63.0954 52.2762C63.0954 52.3658 63.3172 52.4391 63.5883 52.4391C63.8594 52.4391 64.0813 52.5124 64.0813 52.602C64.0813 52.6916 64.377 52.7649 64.7385 52.7649C65.1 52.7649 65.3958 52.8382 65.3958 52.9278C65.3958 53.0184 65.834 53.0907 66.3816 53.0907C66.9293 53.0907 67.3675 53.163 67.3675 53.2536C67.3675 53.3537 68.189 53.4165 69.5035 53.4165C70.818 53.4165 71.6396 53.3537 71.6396 53.2536C71.6396 53.163 72.0778 53.0907 72.6254 53.0907C73.1731 53.0907 73.6113 53.0184 73.6113 52.9278C73.6113 52.8382 73.9071 52.7649 74.2685 52.7649C74.63 52.7649 74.9258 52.6916 74.9258 52.602C74.9258 52.5124 75.1476 52.4391 75.4187 52.4391C75.6898 52.4391 75.9117 52.3658 75.9117 52.2762C75.9117 52.1866 76.1335 52.1133 76.4046 52.1133C76.6757 52.1133 76.8975 52.04 76.8975 51.9505C76.8975 51.8609 77.0454 51.7876 77.2261 51.7876C77.4069 51.7876 77.5548 51.7143 77.5548 51.6247C77.5548 51.5351 77.7603 51.4618 78.0114 51.4618C78.2795 51.4618 78.5658 51.3272 78.7049 51.136C78.8352 50.9568 79.0733 50.8102 79.2342 50.8102C79.3949 50.8102 79.5265 50.7369 79.5265 50.6473C79.5265 50.5578 79.6581 50.4845 79.8188 50.4845C79.9797 50.4845 80.2178 50.3379 80.3481 50.1587C80.4784 49.9795 80.6893 49.8329 80.8168 49.8329C80.9445 49.8329 81.1823 49.6804 81.3453 49.4941C81.6392 49.1581 81.6719 49.1854 85.4287 52.9148C87.5115 54.9825 89.3278 56.6742 89.4647 56.6742C89.6017 56.6742 89.7138 56.7475 89.7138 56.8371C89.7138 56.9267 90.1229 57 90.6229 57C91.4413 57 91.5891 56.9436 92.1017 56.4353C92.4151 56.1248 92.6714 55.7583 92.6714 55.6208C92.6714 55.4835 92.7453 55.3711 92.8357 55.3711C92.9261 55.3711 93 55.1512 93 54.8824C93 54.6137 92.9261 54.3938 92.8357 54.3938C92.7453 54.3938 92.6714 54.2827 92.6714 54.1468C92.6714 54.0112 90.9708 52.2165 88.8922 50.1587C84.9663 46.2722 84.7276 45.9452 85.4417 45.4349C85.6224 45.3057 85.7703 45.0858 85.7703 44.9462C85.7703 44.8066 85.9182 44.5867 86.0989 44.4576C86.2797 44.3284 86.4276 44.0924 86.4276 43.9329C86.4276 43.7736 86.5015 43.6431 86.5919 43.6431C86.6822 43.6431 86.7562 43.5127 86.7562 43.3534C86.7562 43.1939 86.9041 42.9579 87.0848 42.8287C87.2777 42.6907 87.4134 42.407 87.4134 42.1411C87.4134 41.8922 87.4874 41.6885 87.5777 41.6885C87.6681 41.6885 87.742 41.5419 87.742 41.3627C87.742 41.1835 87.816 41.0369 87.9064 41.0369C87.9967 41.0369 88.0707 40.817 88.0707 40.5483C88.0707 40.2795 88.1446 40.0596 88.235 40.0596C88.3253 40.0596 88.3993 39.8397 88.3993 39.5709C88.3993 39.3022 88.4732 39.0823 88.5636 39.0823C88.654 39.0823 88.7279 38.7891 88.7279 38.4307C88.7279 38.0723 88.8019 37.7791 88.8922 37.7791C88.9836 37.7791 89.0565 37.3447 89.0565 36.8018C89.0565 36.2589 89.1295 35.8245 89.2208 35.8245C89.3219 35.8245 89.3852 35.01 89.3852 33.7069C89.3852 32.4038 89.3219 31.5894 89.2208 31.5894C89.1295 31.5894 89.0565 31.155 89.0565 30.612C89.0565 30.0691 88.9836 29.6347 88.8922 29.6347C88.8019 29.6347 88.7279 29.3415 88.7279 28.9832C88.7279 28.6248 88.654 28.3316 88.5636 28.3316C88.4732 28.3316 88.3993 28.1117 88.3993 27.8429C88.3993 27.5742 88.3253 27.3543 88.235 27.3543C88.1446 27.3543 88.0707 27.1344 88.0707 26.8656C88.0707 26.5968 87.9967 26.3769 87.9064 26.3769C87.816 26.3769 87.742 26.2303 87.742 26.0512C87.742 25.872 87.6681 25.7254 87.5777 25.7254C87.4874 25.7254 87.4134 25.5216 87.4134 25.2727C87.4134 25.0069 87.2777 24.7231 87.0848 24.5852C86.9041 24.456 86.7562 24.22 86.7562 24.0605C86.7562 23.9012 86.6822 23.7707 86.5919 23.7707C86.5015 23.7707 86.4276 23.6403 86.4276 23.4809C86.4276 23.3215 86.2797 23.0855 86.0989 22.9563C85.9182 22.8271 85.7703 22.6204 85.7703 22.4969C85.7703 22.3736 85.5485 22.0671 85.2774 21.8161C85.0063 21.5651 84.7844 21.2779 84.7844 21.178C84.7844 20.941 82.3809 18.5583 82.1418 18.5583C82.0411 18.5583 81.7514 18.3384 81.4982 18.0696C81.245 17.8009 80.9358 17.581 80.8114 17.581C80.6869 17.581 80.4784 17.4344 80.3481 17.2552C80.2178 17.076 79.9797 16.9294 79.8188 16.9294C79.6581 16.9294 79.5265 16.8561 79.5265 16.7665C79.5265 16.6769 79.3949 16.6036 79.2342 16.6036C79.0733 16.6036 78.8352 16.457 78.7049 16.2779C78.5658 16.0866 78.2795 15.9521 78.0114 15.9521C77.7603 15.9521 77.5548 15.8788 77.5548 15.7892C77.5548 15.6996 77.4069 15.6263 77.2261 15.6263C77.0454 15.6263 76.8975 15.553 76.8975 15.4634C76.8975 15.3738 76.6757 15.3005 76.4046 15.3005C76.1335 15.3005 75.9117 15.2272 75.9117 15.1376C75.9117 15.048 75.6898 14.9747 75.4187 14.9747C75.1476 14.9747 74.9258 14.9014 74.9258 14.8119C74.9258 14.7223 74.63 14.649 74.2685 14.649C73.9071 14.649 73.6113 14.5757 73.6113 14.4861C73.6113 14.3955 73.1731 14.3232 72.6254 14.3232C72.0778 14.3232 71.6396 14.2509 71.6396 14.1603C71.6396 14.0601 70.818 13.9974 69.5035 13.9974C68.189 13.9974 67.3675 14.0601 67.3675 14.1603C67.3675 14.2499 67.0338 14.3232 66.626 14.3232H65.8846L61.1237 9.59942C58.5052 7.00135 56.251 4.87565 56.1143 4.87565C55.9776 4.87565 55.8657 4.80235 55.8657 4.71276C55.8657 4.61975 55.3728 4.54988 54.7155 4.54988C54.0583 4.54988 53.5654 4.61975 53.5654 4.71276ZM69.0936 23.3627C72.0065 26.2505 73.6113 27.9576 73.6113 28.1684C73.6113 28.3826 70.9187 31.1646 65.807 36.2322C59.6687 42.3172 57.9148 43.9689 57.5915 43.9689C57.3241 43.9689 57.1802 43.8777 57.1802 43.7085C57.1802 43.5653 56.9584 43.2426 56.6873 42.9916C56.4162 42.7406 56.1943 42.4179 56.1943 42.2747C56.1943 42.1314 56.1204 42.0142 56.03 42.0142C55.9397 42.0142 55.8657 41.8676 55.8657 41.6885C55.8657 41.5093 55.7918 41.3627 55.7014 41.3627C55.611 41.3627 55.5371 41.2161 55.5371 41.0369C55.5371 40.8577 55.4632 40.7111 55.3728 40.7111C55.2824 40.7111 55.2085 40.5645 55.2085 40.3854C55.2085 40.2062 55.1345 40.0596 55.0442 40.0596C54.9538 40.0596 54.8799 39.913 54.8799 39.7338C54.8799 39.5546 54.8059 39.408 54.7155 39.408C54.6252 39.408 54.5512 39.1881 54.5512 38.9194C54.5512 38.6506 54.4773 38.4307 54.3869 38.4307C54.2966 38.4307 54.2226 38.2108 54.2226 37.942C54.2226 37.6733 54.1487 37.4534 54.0583 37.4534C53.9669 37.4534 53.894 37.0189 53.894 36.476C53.894 35.9331 53.821 35.4987 53.7297 35.4987C53.6301 35.4987 53.5654 34.7929 53.5654 33.7069C53.5654 32.621 53.6301 31.9152 53.7297 31.9152C53.821 31.9152 53.894 31.4807 53.894 30.9378C53.894 30.3949 53.9669 29.9605 54.0583 29.9605C54.1487 29.9605 54.2226 29.7406 54.2226 29.4718C54.2226 29.2031 54.2966 28.9832 54.3869 28.9832C54.4773 28.9832 54.5512 28.7633 54.5512 28.4945C54.5512 28.2257 54.6252 28.0058 54.7155 28.0058C54.8059 28.0058 54.8799 27.8592 54.8799 27.6801C54.8799 27.5009 54.9538 27.3543 55.0442 27.3543C55.1345 27.3543 55.2085 27.2077 55.2085 27.0285C55.2085 26.8493 55.2824 26.7027 55.3728 26.7027C55.4632 26.7027 55.5371 26.5561 55.5371 26.3769C55.5371 26.1978 55.611 26.0512 55.7014 26.0512C55.7918 26.0512 55.8657 25.9046 55.8657 25.7254C55.8657 25.5462 55.9397 25.3996 56.03 25.3996C56.1204 25.3996 56.1943 25.2825 56.1943 25.1392C56.1943 24.996 56.4162 24.6733 56.6873 24.4223C56.9584 24.1713 57.1802 23.8839 57.1802 23.7838C57.1802 23.5466 59.2545 21.4903 59.4937 21.4903C59.5948 21.4903 59.8846 21.2704 60.1378 21.0016C60.391 20.7329 60.7165 20.513 60.8609 20.513C61.0055 20.513 61.1237 20.4397 61.1237 20.3501C61.1237 20.2605 61.2716 20.1872 61.4523 20.1872C61.633 20.1872 61.7809 20.1139 61.7809 20.0243C61.7809 19.9347 61.9288 19.8614 62.1095 19.8614C62.2903 19.8614 62.4382 19.7881 62.4382 19.6985C62.4382 19.6089 62.586 19.5356 62.7668 19.5356C62.9475 19.5356 63.0954 19.4623 63.0954 19.3727C63.0954 19.2831 63.2433 19.2098 63.424 19.2098C63.6048 19.2098 63.7526 19.1365 63.7526 19.047C63.7526 18.9574 63.9378 18.8841 64.1642 18.8841C64.4838 18.8841 65.5844 19.884 69.0936 23.3627ZM75.2544 19.047C75.2544 19.1365 75.4023 19.2098 75.583 19.2098C75.7638 19.2098 75.9117 19.2831 75.9117 19.3727C75.9117 19.4623 76.0595 19.5356 76.2403 19.5356C76.421 19.5356 76.5689 19.6089 76.5689 19.6985C76.5689 19.7881 76.7168 19.8614 76.8975 19.8614C77.0783 19.8614 77.2261 19.9347 77.2261 20.0243C77.2261 20.1139 77.374 20.1872 77.5548 20.1872C77.7355 20.1872 77.8834 20.2605 77.8834 20.3501C77.8834 20.4397 78.0015 20.513 78.1461 20.513C78.2906 20.513 78.6161 20.7329 78.8693 21.0016C79.1225 21.2704 79.4123 21.4903 79.5134 21.4903C79.7526 21.4903 81.8269 23.5466 81.8269 23.7838C81.8269 23.8839 82.0487 24.1713 82.3198 24.4223C82.5909 24.6733 82.8127 24.996 82.8127 25.1392C82.8127 25.2825 82.8867 25.3996 82.977 25.3996C83.0674 25.3996 83.1413 25.5462 83.1413 25.7254C83.1413 25.9046 83.2153 26.0512 83.3057 26.0512C83.396 26.0512 83.47 26.1978 83.47 26.3769C83.47 26.5561 83.5439 26.7027 83.6343 26.7027C83.7246 26.7027 83.7986 26.8493 83.7986 27.0285C83.7986 27.2077 83.8725 27.3543 83.9629 27.3543C84.0533 27.3543 84.1272 27.5009 84.1272 27.6801C84.1272 27.8592 84.2011 28.0058 84.2915 28.0058C84.3819 28.0058 84.4558 28.2257 84.4558 28.4945C84.4558 28.7633 84.5298 28.9832 84.6201 28.9832C84.7105 28.9832 84.7844 29.2031 84.7844 29.4718C84.7844 29.7406 84.8584 29.9605 84.9488 29.9605C85.0401 29.9605 85.1131 30.3949 85.1131 30.9378C85.1131 31.4807 85.186 31.9152 85.2774 31.9152C85.377 31.9152 85.4417 32.621 85.4417 33.7069C85.4417 34.7929 85.377 35.4987 85.2774 35.4987C85.186 35.4987 85.1131 35.9331 85.1131 36.476C85.1131 37.0189 85.0401 37.4534 84.9488 37.4534C84.8584 37.4534 84.7844 37.6733 84.7844 37.942C84.7844 38.2108 84.7105 38.4307 84.6201 38.4307C84.5298 38.4307 84.4558 38.6506 84.4558 38.9194C84.4558 39.1881 84.3819 39.408 84.2915 39.408C84.2011 39.408 84.1272 39.5546 84.1272 39.7338C84.1272 39.913 84.0533 40.0596 83.9629 40.0596C83.8725 40.0596 83.7986 40.2062 83.7986 40.3854C83.7986 40.5645 83.7246 40.7111 83.6343 40.7111C83.5439 40.7111 83.47 40.8577 83.47 41.0369C83.47 41.2161 83.396 41.3627 83.3057 41.3627C83.2153 41.3627 83.1413 41.5093 83.1413 41.6885C83.1413 41.8676 83.0674 42.0142 82.977 42.0142C82.8867 42.0142 82.8127 42.1314 82.8127 42.2747C82.8127 42.4179 82.5909 42.7406 82.3198 42.9916C82.0487 43.2426 81.8269 43.5299 81.8269 43.6301C81.8269 43.8673 79.7526 45.9236 79.5134 45.9236C79.4123 45.9236 79.1225 46.1435 78.8693 46.4122C78.6161 46.681 78.2906 46.9009 78.1461 46.9009C78.0015 46.9009 77.8834 46.9742 77.8834 47.0638C77.8834 47.1534 77.7355 47.2267 77.5548 47.2267C77.374 47.2267 77.2261 47.3 77.2261 47.3896C77.2261 47.4792 77.0783 47.5525 76.8975 47.5525C76.7168 47.5525 76.5689 47.6258 76.5689 47.7154C76.5689 47.8049 76.421 47.8782 76.2403 47.8782C76.0595 47.8782 75.9117 47.9515 75.9117 48.0411C75.9117 48.1307 75.7638 48.204 75.583 48.204C75.4023 48.204 75.2544 48.2773 75.2544 48.3669C75.2544 48.4565 75.0326 48.5298 74.7615 48.5298C74.4904 48.5298 74.2685 48.6031 74.2685 48.6927C74.2685 48.7823 74.0467 48.8556 73.7756 48.8556C73.5045 48.8556 73.2827 48.9289 73.2827 49.0185C73.2827 49.109 72.8445 49.1813 72.2968 49.1813C71.7492 49.1813 71.311 49.2537 71.311 49.3442C71.311 49.4429 70.599 49.5071 69.5035 49.5071C68.4081 49.5071 67.6961 49.4429 67.6961 49.3442C67.6961 49.2537 67.2579 49.1813 66.7102 49.1813C66.1626 49.1813 65.7244 49.109 65.7244 49.0185C65.7244 48.9289 65.5026 48.8556 65.2314 48.8556C64.9603 48.8556 64.7385 48.7823 64.7385 48.6927C64.7385 48.6031 64.5167 48.5298 64.2456 48.5298C63.9745 48.5298 63.7526 48.4927 63.7526 48.4472C63.7526 48.4018 67.7454 44.4074 72.6254 39.5709C77.5055 34.7344 81.4982 30.6668 81.4982 30.5317C81.4982 30.3967 81.5722 30.2863 81.6625 30.2863C81.7529 30.2863 81.8269 30.1397 81.8269 29.9605C81.8269 29.7813 81.9008 29.6347 81.9912 29.6347C82.0886 29.6347 82.1555 29.0374 82.1555 28.1687C82.1555 27.3 82.0886 26.7027 81.9912 26.7027C81.9008 26.7027 81.8269 26.5561 81.8269 26.3769C81.8269 26.1978 81.7529 26.0512 81.6625 26.0512C81.5722 26.0512 81.4982 25.9399 81.4982 25.8039C81.4982 25.6679 80.0194 24.0932 78.212 22.3047C76.4046 20.5162 74.9258 19.0149 74.9258 18.9684C74.9258 18.922 74.9997 18.8841 75.0901 18.8841C75.1805 18.8841 75.2544 18.9574 75.2544 19.047Z" fill="black"/>
</svg>
