<svg width="45" height="30" viewBox="0 0 45 30" fill="none" xmlns="http://www.w3.org/2000/svg">
<path fill-rule="evenodd" clip-rule="evenodd" d="M20.3732 0.384198C20.1575 0.625273 20.0353 0.840029 20.0353 0.978141C20.0353 1.09705 19.9996 1.19444 19.9558 1.19444C19.9121 1.19444 19.8763 1.34876 19.8763 1.53736C19.8763 1.72597 19.8405 1.88029 19.7968 1.88029C19.7526 1.88029 19.7173 2.10893 19.7173 2.39467C19.7173 2.68041 19.682 2.90906 19.6378 2.90906C19.5941 2.90906 19.5583 3.10195 19.5583 3.33771C19.5583 3.57347 19.5225 3.76636 19.4788 3.76636C19.4351 3.76636 19.3993 3.95926 19.3993 4.19502C19.3993 4.43078 19.3635 4.62367 19.3198 4.62367C19.2761 4.62367 19.2403 4.81657 19.2403 5.05233C19.2403 5.28809 19.2045 5.48098 19.1608 5.48098C19.117 5.48098 19.0813 5.67388 19.0813 5.90964C19.0813 6.1454 19.0455 6.33829 19.0018 6.33829C18.9576 6.33829 18.9223 6.56693 18.9223 6.85268C18.9223 7.13842 18.887 7.36706 18.8428 7.36706C18.799 7.36706 18.7633 7.55995 18.7633 7.79571C18.7633 8.03147 18.7275 8.22437 18.6837 8.22437C18.64 8.22437 18.6042 8.41726 18.6042 8.65302C18.6042 8.88878 18.5685 9.08168 18.5247 9.08168C18.481 9.08168 18.4452 9.27457 18.4452 9.51033C18.4452 9.74609 18.4095 9.93899 18.3657 9.93899C18.322 9.93899 18.2862 10.1319 18.2862 10.3676C18.2862 10.6034 18.2504 10.7963 18.2067 10.7963C18.1625 10.7963 18.1272 11.0249 18.1272 11.3107C18.1272 11.5964 18.0919 11.8251 18.0477 11.8251C18.004 11.8251 17.9682 12.018 17.9682 12.2537C17.9682 12.4895 17.9324 12.6824 17.8887 12.6824C17.845 12.6824 17.8092 12.8753 17.8092 13.111C17.8092 13.3468 17.7734 13.5397 17.7297 13.5397C17.686 13.5397 17.6502 13.7326 17.6502 13.9683C17.6502 14.2041 17.6144 14.397 17.5707 14.397C17.5265 14.397 17.4912 14.6256 17.4912 14.9114C17.4912 15.1971 17.4559 15.4258 17.4117 15.4258C17.3679 15.4258 17.3322 15.6187 17.3322 15.8544C17.3322 16.0902 17.2964 16.2831 17.2527 16.2831C17.2089 16.2831 17.1731 16.476 17.1731 16.7117C17.1731 16.9475 17.1374 17.1404 17.0936 17.1404C17.0499 17.1404 17.0141 17.3333 17.0141 17.569C17.0141 17.8048 16.9784 17.9977 16.9346 17.9977C16.8909 17.9977 16.8551 18.1906 16.8551 18.4263C16.8551 18.6621 16.8193 18.855 16.7756 18.855C16.7314 18.855 16.6961 19.0836 16.6961 19.3694C16.6961 19.6551 16.6608 19.8838 16.6166 19.8838C16.5729 19.8838 16.5371 20.0767 16.5371 20.3124C16.5371 20.5482 16.5013 20.7411 16.4576 20.7411C16.4139 20.7411 16.3781 20.934 16.3781 21.1697C16.3781 21.4055 16.3423 21.5984 16.2986 21.5984C16.2549 21.5984 16.2191 21.7913 16.2191 22.027C16.2191 22.2628 16.1833 22.4557 16.1396 22.4557C16.0958 22.4557 16.0601 22.6486 16.0601 22.8843C16.0601 23.1201 16.0243 23.313 15.9806 23.313C15.9364 23.313 15.9011 23.5416 15.9011 23.8274C15.9011 24.1131 15.8658 24.3418 15.8216 24.3418C15.7778 24.3418 15.742 24.5347 15.742 24.7704C15.742 25.0062 15.7063 25.1991 15.6625 25.1991C15.6188 25.1991 15.583 25.392 15.583 25.6277C15.583 25.8635 15.5473 26.0564 15.5035 26.0564C15.4598 26.0564 15.424 26.2493 15.424 26.485C15.424 26.7208 15.3883 26.9137 15.3445 26.9137C15.2974 26.9137 15.265 27.2281 15.265 27.6853C15.265 28.1425 15.2974 28.4568 15.3445 28.4568C15.3883 28.4568 15.424 28.5164 15.424 28.5893C15.424 28.6622 15.5119 28.8165 15.6192 28.9322C15.7751 29.1004 15.8954 29.1427 16.2181 29.1427C16.5729 29.1427 16.6554 29.1066 16.8975 28.8455C17.0491 28.6821 17.1731 28.4892 17.1731 28.4168C17.1731 28.3445 17.2089 28.2854 17.2527 28.2854C17.2964 28.2854 17.3322 28.1696 17.3322 28.0282C17.3322 27.8867 17.3679 27.771 17.4117 27.771C17.4554 27.771 17.4912 27.5781 17.4912 27.3423C17.4912 27.1066 17.5269 26.9137 17.5707 26.9137C17.6144 26.9137 17.6502 26.7208 17.6502 26.485C17.6502 26.2493 17.686 26.0564 17.7297 26.0564C17.7739 26.0564 17.8092 25.8277 17.8092 25.542C17.8092 25.2563 17.8445 25.0276 17.8887 25.0276C17.9324 25.0276 17.9682 24.8347 17.9682 24.599C17.9682 24.3632 18.004 24.1703 18.0477 24.1703C18.0914 24.1703 18.1272 23.9774 18.1272 23.7416C18.1272 23.5059 18.163 23.313 18.2067 23.313C18.2504 23.313 18.2862 23.1201 18.2862 22.8843C18.2862 22.6486 18.322 22.4557 18.3657 22.4557C18.4095 22.4557 18.4452 22.2628 18.4452 22.027C18.4452 21.7913 18.481 21.5984 18.5247 21.5984C18.5689 21.5984 18.6042 21.3697 18.6042 21.084C18.6042 20.7983 18.6395 20.5696 18.6837 20.5696C18.7275 20.5696 18.7633 20.3767 18.7633 20.141C18.7633 19.9052 18.799 19.7123 18.8428 19.7123C18.8865 19.7123 18.9223 19.5194 18.9223 19.2836C18.9223 19.0479 18.958 18.855 19.0018 18.855C19.0455 18.855 19.0813 18.6621 19.0813 18.4263C19.0813 18.1906 19.117 17.9977 19.1608 17.9977C19.205 17.9977 19.2403 17.769 19.2403 17.4833C19.2403 17.1976 19.2756 16.9689 19.3198 16.9689C19.3635 16.9689 19.3993 16.776 19.3993 16.5403C19.3993 16.3045 19.4351 16.1116 19.4788 16.1116C19.5225 16.1116 19.5583 15.9187 19.5583 15.683C19.5583 15.4472 19.5941 15.2543 19.6378 15.2543C19.6815 15.2543 19.7173 15.0614 19.7173 14.8256C19.7173 14.5899 19.7531 14.397 19.7968 14.397C19.8405 14.397 19.8763 14.2041 19.8763 13.9683C19.8763 13.7326 19.9121 13.5397 19.9558 13.5397C20 13.5397 20.0353 13.311 20.0353 13.0253C20.0353 12.7396 20.0706 12.5109 20.1148 12.5109C20.1586 12.5109 20.1943 12.318 20.1943 12.0823C20.1943 11.8465 20.2301 11.6536 20.2739 11.6536C20.3176 11.6536 20.3534 11.4607 20.3534 11.2249C20.3534 10.9892 20.3891 10.7963 20.4329 10.7963C20.4766 10.7963 20.5124 10.6034 20.5124 10.3676C20.5124 10.1319 20.5481 9.93899 20.5919 9.93899C20.6356 9.93899 20.6714 9.74609 20.6714 9.51033C20.6714 9.27457 20.7072 9.08168 20.7509 9.08168C20.7951 9.08168 20.8304 8.85303 20.8304 8.56729C20.8304 8.28155 20.8657 8.05291 20.9099 8.05291C20.9536 8.05291 20.9894 7.86001 20.9894 7.62425C20.9894 7.38849 21.0252 7.1956 21.0689 7.1956C21.1126 7.1956 21.1484 7.0027 21.1484 6.76694C21.1484 6.53118 21.1842 6.33829 21.2279 6.33829C21.2716 6.33829 21.3074 6.1454 21.3074 5.90964C21.3074 5.67388 21.3432 5.48098 21.3869 5.48098C21.4307 5.48098 21.4664 5.28809 21.4664 5.05233C21.4664 4.81657 21.5022 4.62367 21.5459 4.62367C21.5901 4.62367 21.6254 4.39503 21.6254 4.10929C21.6254 3.82355 21.6607 3.5949 21.7049 3.5949C21.7487 3.5949 21.7845 3.40201 21.7845 3.16625C21.7845 2.93049 21.8202 2.73759 21.864 2.73759C21.9077 2.73759 21.9435 2.5447 21.9435 2.30894C21.9435 2.07318 21.9792 1.88029 22.023 1.88029C22.0667 1.88029 22.1025 1.68739 22.1025 1.45163C22.1025 1.21587 22.0667 1.02298 22.023 1.02298C21.9792 1.02298 21.9435 0.925245 21.9435 0.805822C21.9435 0.672253 21.8372 0.474129 21.6678 0.291437C21.436 0.04136 21.3382 -0.00484888 21.0517 0.000380705C20.7568 0.00578175 20.6658 0.0572202 20.3732 0.384198ZM10.1767 2.4804C10.1767 2.52755 10.1229 2.56613 10.0573 2.56613C9.99159 2.56613 7.73762 4.93865 5.04843 7.83841C1.18781 12.0013 0.159011 13.1558 0.159011 13.3252C0.159011 13.4431 0.123233 13.5397 0.0795053 13.5397C0.0357774 13.5397 0 13.7326 0 13.9683C0 14.2041 0.0357774 14.397 0.0795053 14.397C0.123233 14.397 0.159011 14.4741 0.159011 14.5684C0.159011 14.6628 0.194788 14.7399 0.238516 14.7399C0.282244 14.7399 0.318021 14.7979 0.318021 14.8687C0.318021 15.037 9.90119 25.3705 10.0573 25.3705C10.1229 25.3705 10.1767 25.4091 10.1767 25.4563C10.1767 25.5052 10.4152 25.542 10.7332 25.542C11.0512 25.542 11.2898 25.5052 11.2898 25.4563C11.2898 25.4091 11.3613 25.3705 11.4488 25.3705C11.5547 25.3705 11.6078 25.3134 11.6078 25.1991C11.6078 25.1048 11.6436 25.0276 11.6873 25.0276C11.731 25.0276 11.7668 24.8347 11.7668 24.599C11.7668 24.3632 11.731 24.1703 11.6873 24.1703C11.6436 24.1703 11.6078 24.0736 11.6078 23.9555C11.6078 23.7857 10.6548 22.7132 7.0755 18.8545L2.54314 13.9683L7.0755 9.08219C10.6548 5.22345 11.6078 4.15095 11.6078 3.98121C11.6078 3.86307 11.6436 3.76636 11.6873 3.76636C11.731 3.76636 11.7668 3.57347 11.7668 3.33771C11.7668 3.10195 11.731 2.90906 11.6873 2.90906C11.6436 2.90906 11.6078 2.8319 11.6078 2.73759C11.6078 2.62332 11.5547 2.56613 11.4488 2.56613C11.3613 2.56613 11.2898 2.52755 11.2898 2.4804C11.2898 2.43145 11.0512 2.39467 10.7332 2.39467C10.4152 2.39467 10.1767 2.43145 10.1767 2.4804ZM25.9187 2.4804C25.9187 2.52755 25.8472 2.56613 25.7597 2.56613C25.6537 2.56613 25.6007 2.62332 25.6007 2.73759C25.6007 2.8319 25.5649 2.90906 25.5212 2.90906C25.4775 2.90906 25.4417 3.10195 25.4417 3.33771C25.4417 3.57347 25.4775 3.76636 25.5212 3.76636C25.5649 3.76636 25.6007 3.84352 25.6007 3.93783C25.6007 4.03213 25.6365 4.10929 25.6802 4.10929C25.7239 4.10929 25.7597 4.16776 25.7597 4.23926C25.7597 4.31067 26.5837 5.25645 27.5908 6.34095L29.4218 8.31267L29.2242 8.52571C29.1156 8.64291 28.9713 8.73875 28.9038 8.73875C28.8362 8.73875 28.7809 8.77733 28.7809 8.82448C28.7809 8.87164 28.7172 8.91022 28.6395 8.91022C28.5616 8.91022 28.4464 8.98737 28.3834 9.08168C28.3203 9.17598 28.2195 9.25314 28.1592 9.25314C28.099 9.25314 27.9494 9.36888 27.8269 9.51033C27.7043 9.65179 27.5642 9.76752 27.5154 9.76752C27.3998 9.76752 26.2367 11.0216 26.2367 11.1463C26.2367 11.1989 26.1294 11.35 25.9982 11.4821C25.8671 11.6143 25.7597 11.7756 25.7597 11.8405C25.7597 11.9055 25.6882 12.0143 25.6007 12.0823C25.5133 12.1502 25.4417 12.2745 25.4417 12.3584C25.4417 12.4422 25.4059 12.5109 25.3622 12.5109C25.3185 12.5109 25.2827 12.5796 25.2827 12.6634C25.2827 12.7474 25.2111 12.8716 25.1237 12.9396C25.0303 13.0122 24.9647 13.1615 24.9647 13.3014C24.9647 13.4324 24.9289 13.5397 24.8852 13.5397C24.8414 13.5397 24.8057 13.6168 24.8057 13.7111C24.8057 13.8054 24.7699 13.8826 24.7261 13.8826C24.6824 13.8826 24.6466 13.9983 24.6466 14.1398C24.6466 14.2813 24.6109 14.397 24.5671 14.397C24.5234 14.397 24.4876 14.5127 24.4876 14.6542C24.4876 14.7956 24.4519 14.9114 24.4081 14.9114C24.3644 14.9114 24.3286 15.0657 24.3286 15.2543C24.3286 15.4429 24.2928 15.5972 24.2491 15.5972C24.2049 15.5972 24.1696 15.8259 24.1696 16.1116C24.1696 16.3973 24.1343 16.626 24.0901 16.626C24.0412 16.626 24.0106 17.0546 24.0106 17.7405C24.0106 18.4263 24.0412 18.855 24.0901 18.855C24.1343 18.855 24.1696 19.0836 24.1696 19.3694C24.1696 19.6551 24.2049 19.8838 24.2491 19.8838C24.2928 19.8838 24.3286 20.0381 24.3286 20.2267C24.3286 20.4153 24.3644 20.5696 24.4081 20.5696C24.4519 20.5696 24.4876 20.6853 24.4876 20.8268C24.4876 20.9683 24.5234 21.084 24.5671 21.084C24.6109 21.084 24.6466 21.1997 24.6466 21.3412C24.6466 21.4826 24.6824 21.5984 24.7261 21.5984C24.7699 21.5984 24.8057 21.6755 24.8057 21.7698C24.8057 21.8641 24.8414 21.9413 24.8852 21.9413C24.9289 21.9413 24.9647 22.0486 24.9647 22.1795C24.9647 22.3195 25.0303 22.4688 25.1237 22.5414C25.2111 22.6094 25.2827 22.7336 25.2827 22.8176C25.2827 22.9014 25.3185 22.9701 25.3622 22.9701C25.4059 22.9701 25.4417 23.0331 25.4417 23.1101C25.4417 23.1871 25.5222 23.3272 25.6206 23.4216C25.7419 23.538 25.7675 23.6057 25.7001 23.6317C25.6455 23.6529 25.6007 23.7827 25.6007 23.9202C25.6007 24.0578 25.5649 24.1703 25.5212 24.1703C25.4775 24.1703 25.4417 24.3452 25.4417 24.5589C25.4417 24.8881 25.4839 24.9931 25.7173 25.2448C25.9749 25.5224 26.0266 25.542 26.5057 25.542C26.8439 25.542 27.0307 25.5055 27.0542 25.4348C27.0784 25.3621 27.1411 25.3897 27.2491 25.5206C27.3366 25.6267 27.4523 25.7135 27.5061 25.7135C27.56 25.7135 27.7043 25.8292 27.8269 25.9707C27.9494 26.1121 28.099 26.2278 28.1592 26.2278C28.2195 26.2278 28.3203 26.305 28.3834 26.3993C28.4464 26.4936 28.5616 26.5708 28.6395 26.5708C28.7172 26.5708 28.7809 26.6093 28.7809 26.6565C28.7809 26.7036 28.8446 26.7422 28.9224 26.7422C29.0002 26.7422 29.1154 26.8194 29.1784 26.9137C29.2458 27.0143 29.3843 27.0852 29.514 27.0852C29.6355 27.0852 29.735 27.1237 29.735 27.1709C29.735 27.218 29.8065 27.2566 29.894 27.2566C29.9814 27.2566 30.053 27.2952 30.053 27.3423C30.053 27.3895 30.1603 27.4281 30.2915 27.4281C30.4227 27.4281 30.53 27.4667 30.53 27.5138C30.53 27.561 30.6374 27.5995 30.7686 27.5995C30.8997 27.5995 31.0071 27.6381 31.0071 27.6853C31.0071 27.7324 31.1502 27.771 31.3251 27.771C31.5 27.771 31.6431 27.8096 31.6431 27.8567C31.6431 27.9044 31.8552 27.9425 32.1201 27.9425C32.3851 27.9425 32.5972 27.9805 32.5972 28.0282C32.5972 28.0809 32.9947 28.1139 33.6307 28.1139C34.2668 28.1139 34.6643 28.0809 34.6643 28.0282C34.6643 27.9805 34.8764 27.9425 35.1413 27.9425C35.4063 27.9425 35.6184 27.9044 35.6184 27.8567C35.6184 27.8096 35.7615 27.771 35.9364 27.771C36.1113 27.771 36.2544 27.7324 36.2544 27.6853C36.2544 27.6381 36.3617 27.5995 36.4929 27.5995C36.6241 27.5995 36.7314 27.561 36.7314 27.5138C36.7314 27.4667 36.8388 27.4281 36.97 27.4281C37.1011 27.4281 37.2085 27.3895 37.2085 27.3423C37.2085 27.2952 37.28 27.2566 37.3675 27.2566C37.4549 27.2566 37.5265 27.218 37.5265 27.1709C37.5265 27.1237 37.626 27.0852 37.7474 27.0852C37.8772 27.0852 38.0157 27.0143 38.083 26.9137C38.1461 26.8194 38.2613 26.7422 38.3391 26.7422C38.4169 26.7422 38.4806 26.7036 38.4806 26.6565C38.4806 26.6093 38.5442 26.5708 38.622 26.5708C38.6998 26.5708 38.815 26.4936 38.8781 26.3993C38.9411 26.305 39.0432 26.2278 39.1049 26.2278C39.1667 26.2278 39.2817 26.1476 39.3606 26.0495C39.5028 25.8727 39.5187 25.8871 41.3365 27.8499C42.3443 28.9381 43.2231 29.8285 43.2894 29.8285C43.3557 29.8285 43.4099 29.8671 43.4099 29.9143C43.4099 29.9614 43.6079 30 43.8498 30C44.2458 30 44.3173 29.9703 44.5653 29.7028C44.717 29.5394 44.841 29.3465 44.841 29.2741C44.841 29.2018 44.8768 29.1427 44.9205 29.1427C44.9642 29.1427 45 29.027 45 28.8855C45 28.744 44.9642 28.6283 44.9205 28.6283C44.8768 28.6283 44.841 28.5698 44.841 28.4983C44.841 28.4269 44.0181 27.4823 43.0124 26.3993C41.1127 24.3538 40.9972 24.1817 41.3428 23.9131C41.4302 23.8451 41.5018 23.7294 41.5018 23.6559C41.5018 23.5824 41.5733 23.4667 41.6608 23.3987C41.7482 23.3307 41.8198 23.2065 41.8198 23.1226C41.8198 23.0387 41.8556 22.9701 41.8993 22.9701C41.943 22.9701 41.9788 22.9014 41.9788 22.8176C41.9788 22.7336 42.0504 22.6094 42.1378 22.5414C42.2311 22.4688 42.2968 22.3195 42.2968 22.1795C42.2968 22.0486 42.3326 21.9413 42.3763 21.9413C42.4201 21.9413 42.4558 21.8641 42.4558 21.7698C42.4558 21.6755 42.4916 21.5984 42.5353 21.5984C42.5791 21.5984 42.6148 21.4826 42.6148 21.3412C42.6148 21.1997 42.6506 21.084 42.6943 21.084C42.7381 21.084 42.7739 20.9683 42.7739 20.8268C42.7739 20.6853 42.8096 20.5696 42.8534 20.5696C42.8971 20.5696 42.9329 20.4153 42.9329 20.2267C42.9329 20.0381 42.9686 19.8838 43.0124 19.8838C43.0566 19.8838 43.0919 19.6551 43.0919 19.3694C43.0919 19.0836 43.1272 18.855 43.1714 18.855C43.2203 18.855 43.2509 18.4263 43.2509 17.7405C43.2509 17.0546 43.2203 16.626 43.1714 16.626C43.1272 16.626 43.0919 16.3973 43.0919 16.1116C43.0919 15.8259 43.0566 15.5972 43.0124 15.5972C42.9686 15.5972 42.9329 15.4429 42.9329 15.2543C42.9329 15.0657 42.8971 14.9114 42.8534 14.9114C42.8096 14.9114 42.7739 14.7956 42.7739 14.6542C42.7739 14.5127 42.7381 14.397 42.6943 14.397C42.6506 14.397 42.6148 14.2813 42.6148 14.1398C42.6148 13.9983 42.5791 13.8826 42.5353 13.8826C42.4916 13.8826 42.4558 13.8054 42.4558 13.7111C42.4558 13.6168 42.4201 13.5397 42.3763 13.5397C42.3326 13.5397 42.2968 13.4324 42.2968 13.3014C42.2968 13.1615 42.2311 13.0122 42.1378 12.9396C42.0504 12.8716 41.9788 12.7474 41.9788 12.6634C41.9788 12.5796 41.943 12.5109 41.8993 12.5109C41.8556 12.5109 41.8198 12.4422 41.8198 12.3584C41.8198 12.2745 41.7482 12.1502 41.6608 12.0823C41.5733 12.0143 41.5018 11.9055 41.5018 11.8405C41.5018 11.7756 41.3944 11.6143 41.2633 11.4821C41.1321 11.35 41.0247 11.1989 41.0247 11.1463C41.0247 11.0216 39.8617 9.76752 39.7461 9.76752C39.6973 9.76752 39.5571 9.65179 39.4346 9.51033C39.3121 9.36888 39.1625 9.25314 39.1023 9.25314C39.042 9.25314 38.9411 9.17598 38.8781 9.08168C38.815 8.98737 38.6998 8.91022 38.622 8.91022C38.5442 8.91022 38.4806 8.87164 38.4806 8.82448C38.4806 8.77733 38.4169 8.73875 38.3391 8.73875C38.2613 8.73875 38.1461 8.6616 38.083 8.56729C38.0157 8.46664 37.8772 8.39583 37.7474 8.39583C37.626 8.39583 37.5265 8.35725 37.5265 8.3101C37.5265 8.26295 37.4549 8.22437 37.3675 8.22437C37.28 8.22437 37.2085 8.18579 37.2085 8.13864C37.2085 8.09149 37.1011 8.05291 36.97 8.05291C36.8388 8.05291 36.7314 8.01433 36.7314 7.96718C36.7314 7.92002 36.6241 7.88145 36.4929 7.88145C36.3617 7.88145 36.2544 7.84287 36.2544 7.79571C36.2544 7.74856 36.1113 7.70998 35.9364 7.70998C35.7615 7.70998 35.6184 7.6714 35.6184 7.62425C35.6184 7.57659 35.4063 7.53852 35.1413 7.53852C34.8764 7.53852 34.6643 7.50046 34.6643 7.45279C34.6643 7.40007 34.2668 7.36706 33.6307 7.36706C32.9947 7.36706 32.5972 7.40007 32.5972 7.45279C32.5972 7.49994 32.4357 7.53852 32.2384 7.53852H31.8796L29.576 5.05233C28.309 3.68492 27.2182 2.56613 27.1521 2.56613C27.0859 2.56613 27.0318 2.52755 27.0318 2.4804C27.0318 2.43145 26.7933 2.39467 26.4753 2.39467C26.1572 2.39467 25.9187 2.43145 25.9187 2.4804ZM33.4324 12.2962C34.8418 13.8161 35.6184 14.7145 35.6184 14.8255C35.6184 14.9382 34.3155 16.4024 31.8421 19.0696C28.872 22.2722 28.0233 23.1415 27.8668 23.1415C27.7375 23.1415 27.6678 23.0935 27.6678 23.0044C27.6678 22.9291 27.5605 22.7593 27.4293 22.6271C27.2981 22.495 27.1908 22.3252 27.1908 22.2498C27.1908 22.1744 27.155 22.1128 27.1113 22.1128C27.0676 22.1128 27.0318 22.0356 27.0318 21.9413C27.0318 21.847 26.996 21.7698 26.9523 21.7698C26.9086 21.7698 26.8728 21.6927 26.8728 21.5984C26.8728 21.5041 26.837 21.4269 26.7933 21.4269C26.7496 21.4269 26.7138 21.3498 26.7138 21.2555C26.7138 21.1612 26.678 21.084 26.6343 21.084C26.5905 21.084 26.5548 21.0068 26.5548 20.9125C26.5548 20.8182 26.519 20.7411 26.4753 20.7411C26.4315 20.7411 26.3958 20.6253 26.3958 20.4839C26.3958 20.3424 26.36 20.2267 26.3163 20.2267C26.2725 20.2267 26.2367 20.1109 26.2367 19.9695C26.2367 19.828 26.201 19.7123 26.1572 19.7123C26.113 19.7123 26.0777 19.4837 26.0777 19.1979C26.0777 18.9122 26.0424 18.6835 25.9982 18.6835C25.9501 18.6835 25.9187 18.3121 25.9187 17.7405C25.9187 17.1689 25.9501 16.7975 25.9982 16.7975C26.0424 16.7975 26.0777 16.5688 26.0777 16.2831C26.0777 15.9973 26.113 15.7687 26.1572 15.7687C26.201 15.7687 26.2367 15.6529 26.2367 15.5115C26.2367 15.37 26.2725 15.2543 26.3163 15.2543C26.36 15.2543 26.3958 15.1386 26.3958 14.9971C26.3958 14.8556 26.4315 14.7399 26.4753 14.7399C26.519 14.7399 26.5548 14.6628 26.5548 14.5684C26.5548 14.4741 26.5905 14.397 26.6343 14.397C26.678 14.397 26.7138 14.3198 26.7138 14.2255C26.7138 14.1312 26.7496 14.0541 26.7933 14.0541C26.837 14.0541 26.8728 13.9769 26.8728 13.8826C26.8728 13.7883 26.9086 13.7111 26.9523 13.7111C26.996 13.7111 27.0318 13.634 27.0318 13.5397C27.0318 13.4454 27.0676 13.3682 27.1113 13.3682C27.155 13.3682 27.1908 13.3066 27.1908 13.2311C27.1908 13.1558 27.2981 12.9859 27.4293 12.8538C27.5605 12.7217 27.6678 12.5705 27.6678 12.5178C27.6678 12.3929 28.6715 11.3107 28.7873 11.3107C28.8362 11.3107 28.9764 11.1949 29.0989 11.0535C29.2215 10.912 29.379 10.7963 29.4488 10.7963C29.5188 10.7963 29.576 10.7577 29.576 10.7106C29.576 10.6634 29.6475 10.6248 29.735 10.6248C29.8224 10.6248 29.894 10.5863 29.894 10.5391C29.894 10.4919 29.9655 10.4534 30.053 10.4534C30.1405 10.4534 30.212 10.4148 30.212 10.3676C30.212 10.3205 30.2836 10.2819 30.371 10.2819C30.4585 10.2819 30.53 10.2433 30.53 10.1962C30.53 10.149 30.6016 10.1104 30.689 10.1104C30.7765 10.1104 30.8481 10.0719 30.8481 10.0247C30.8481 9.97756 30.9377 9.93899 31.0472 9.93899C31.2019 9.93899 31.7344 10.4653 33.4324 12.2962ZM36.4134 10.0247C36.4134 10.0719 36.485 10.1104 36.5724 10.1104C36.6599 10.1104 36.7314 10.149 36.7314 10.1962C36.7314 10.2433 36.803 10.2819 36.8905 10.2819C36.9779 10.2819 37.0495 10.3205 37.0495 10.3676C37.0495 10.4148 37.121 10.4534 37.2085 10.4534C37.2959 10.4534 37.3675 10.4919 37.3675 10.5391C37.3675 10.5863 37.439 10.6248 37.5265 10.6248C37.614 10.6248 37.6855 10.6634 37.6855 10.7106C37.6855 10.7577 37.7427 10.7963 37.8126 10.7963C37.8825 10.7963 38.04 10.912 38.1625 11.0535C38.2851 11.1949 38.4253 11.3107 38.4742 11.3107C38.59 11.3107 39.5936 12.3929 39.5936 12.5178C39.5936 12.5705 39.701 12.7217 39.8322 12.8538C39.9633 12.9859 40.0707 13.1558 40.0707 13.2311C40.0707 13.3066 40.1064 13.3682 40.1502 13.3682C40.1939 13.3682 40.2297 13.4454 40.2297 13.5397C40.2297 13.634 40.2655 13.7111 40.3092 13.7111C40.3529 13.7111 40.3887 13.7883 40.3887 13.8826C40.3887 13.9769 40.4245 14.0541 40.4682 14.0541C40.5119 14.0541 40.5477 14.1312 40.5477 14.2255C40.5477 14.3198 40.5835 14.397 40.6272 14.397C40.6709 14.397 40.7067 14.4741 40.7067 14.5684C40.7067 14.6628 40.7425 14.7399 40.7862 14.7399C40.8299 14.7399 40.8657 14.8556 40.8657 14.9971C40.8657 15.1386 40.9015 15.2543 40.9452 15.2543C40.989 15.2543 41.0247 15.37 41.0247 15.5115C41.0247 15.6529 41.0605 15.7687 41.1042 15.7687C41.1484 15.7687 41.1837 15.9973 41.1837 16.2831C41.1837 16.5688 41.219 16.7975 41.2633 16.7975C41.3114 16.7975 41.3428 17.1689 41.3428 17.7405C41.3428 18.3121 41.3114 18.6835 41.2633 18.6835C41.219 18.6835 41.1837 18.9122 41.1837 19.1979C41.1837 19.4837 41.1484 19.7123 41.1042 19.7123C41.0605 19.7123 41.0247 19.828 41.0247 19.9695C41.0247 20.1109 40.989 20.2267 40.9452 20.2267C40.9015 20.2267 40.8657 20.3424 40.8657 20.4839C40.8657 20.6253 40.8299 20.7411 40.7862 20.7411C40.7425 20.7411 40.7067 20.8182 40.7067 20.9125C40.7067 21.0068 40.6709 21.084 40.6272 21.084C40.5835 21.084 40.5477 21.1612 40.5477 21.2555C40.5477 21.3498 40.5119 21.4269 40.4682 21.4269C40.4245 21.4269 40.3887 21.5041 40.3887 21.5984C40.3887 21.6927 40.3529 21.7698 40.3092 21.7698C40.2655 21.7698 40.2297 21.847 40.2297 21.9413C40.2297 22.0356 40.1939 22.1128 40.1502 22.1128C40.1064 22.1128 40.0707 22.1744 40.0707 22.2498C40.0707 22.3252 39.9633 22.495 39.8322 22.6271C39.701 22.7593 39.5936 22.9105 39.5936 22.9632C39.5936 23.088 38.59 24.1703 38.4742 24.1703C38.4253 24.1703 38.2851 24.286 38.1625 24.4275C38.04 24.569 37.8825 24.6847 37.8126 24.6847C37.7427 24.6847 37.6855 24.7233 37.6855 24.7704C37.6855 24.8176 37.614 24.8561 37.5265 24.8561C37.439 24.8561 37.3675 24.8947 37.3675 24.9419C37.3675 24.989 37.2959 25.0276 37.2085 25.0276C37.121 25.0276 37.0495 25.0662 37.0495 25.1133C37.0495 25.1605 36.9779 25.1991 36.8905 25.1991C36.803 25.1991 36.7314 25.2377 36.7314 25.2848C36.7314 25.332 36.6599 25.3705 36.5724 25.3705C36.485 25.3705 36.4134 25.4091 36.4134 25.4563C36.4134 25.5034 36.3061 25.542 36.1749 25.542C36.0437 25.542 35.9364 25.5806 35.9364 25.6277C35.9364 25.6749 35.8291 25.7135 35.6979 25.7135C35.5667 25.7135 35.4594 25.752 35.4594 25.7992C35.4594 25.8469 35.2473 25.8849 34.9823 25.8849C34.7173 25.8849 34.5053 25.923 34.5053 25.9707C34.5053 26.0226 34.1608 26.0564 33.6307 26.0564C33.1007 26.0564 32.7562 26.0226 32.7562 25.9707C32.7562 25.923 32.5441 25.8849 32.2792 25.8849C32.0142 25.8849 31.8021 25.8469 31.8021 25.7992C31.8021 25.752 31.6948 25.7135 31.5636 25.7135C31.4324 25.7135 31.3251 25.6749 31.3251 25.6277C31.3251 25.5806 31.2178 25.542 31.0866 25.542C30.9554 25.542 30.8481 25.5225 30.8481 25.4985C30.8481 25.4746 32.78 23.3723 35.1413 20.8268C37.5027 18.2813 39.4346 16.1404 39.4346 16.0693C39.4346 15.9983 39.4704 15.9401 39.5141 15.9401C39.5579 15.9401 39.5936 15.863 39.5936 15.7687C39.5936 15.6744 39.6294 15.5972 39.6731 15.5972C39.7203 15.5972 39.7527 15.2828 39.7527 14.8256C39.7527 14.3684 39.7203 14.0541 39.6731 14.0541C39.6294 14.0541 39.5936 13.9769 39.5936 13.8826C39.5936 13.7883 39.5579 13.7111 39.5141 13.7111C39.4704 13.7111 39.4346 13.6526 39.4346 13.581C39.4346 13.5094 38.7191 12.6807 37.8445 11.7393C36.97 10.798 36.2544 10.0078 36.2544 9.98339C36.2544 9.95896 36.2902 9.93899 36.3339 9.93899C36.3777 9.93899 36.4134 9.97756 36.4134 10.0247Z" fill="black"/>
</svg>
