<svg width="61" height="58" viewBox="0 0 61 58" fill="none" xmlns="http://www.w3.org/2000/svg">
<path fill-rule="evenodd" clip-rule="evenodd" d="M8.02632 0.161111C8.02632 0.249722 7.73737 0.322222 7.38421 0.322222C7.03105 0.322222 6.74211 0.394722 6.74211 0.483333C6.74211 0.571944 6.59763 0.644444 6.42105 0.644444C6.24447 0.644444 6.1 0.716944 6.1 0.805556C6.1 0.894167 5.95553 0.966667 5.77895 0.966667C5.60237 0.966667 5.45789 1.03917 5.45789 1.12778C5.45789 1.21639 5.31342 1.28889 5.13684 1.28889C4.96026 1.28889 4.81579 1.36139 4.81579 1.45C4.81579 1.53861 4.70631 1.61111 4.57243 1.61111C4.27642 1.61111 1.92632 3.9382 1.92632 4.23126C1.92632 4.34613 1.78184 4.54446 1.60526 4.67222C1.42868 4.79998 1.28421 5.03343 1.28421 5.19116C1.28421 5.34873 1.21197 5.47778 1.12368 5.47778C1.03539 5.47778 0.963158 5.62278 0.963158 5.8C0.963158 5.97722 0.890921 6.12222 0.802632 6.12222C0.714342 6.12222 0.642105 6.41222 0.642105 6.76667C0.642105 7.12111 0.569868 7.41111 0.481579 7.41111C0.393289 7.41111 0.321053 7.77361 0.321053 8.21667C0.321053 8.65972 0.248816 9.02222 0.160526 9.02222C0.0544184 9.02222 0 15.1981 0 27.2278C0 39.2575 0.0544184 45.4333 0.160526 45.4333C0.248816 45.4333 0.321053 45.7958 0.321053 46.2389C0.321053 46.6819 0.393289 47.0444 0.481579 47.0444C0.569868 47.0444 0.642105 47.3344 0.642105 47.6889C0.642105 48.0433 0.714342 48.3333 0.802632 48.3333C0.890921 48.3333 0.963158 48.4783 0.963158 48.6556C0.963158 48.8328 1.03539 48.9778 1.12368 48.9778C1.21197 48.9778 1.28421 49.1068 1.28421 49.2644C1.28421 49.4221 1.42868 49.6556 1.60526 49.7833C1.78184 49.9111 1.92632 50.1094 1.92632 50.2243C1.92632 50.5174 4.27642 52.8444 4.57243 52.8444C4.70631 52.8444 4.81579 52.9169 4.81579 53.0056C4.81579 53.0942 4.96026 53.1667 5.13684 53.1667C5.31342 53.1667 5.45789 53.2392 5.45789 53.3278C5.45789 53.4164 5.60237 53.4889 5.77895 53.4889C5.95553 53.4889 6.1 53.5614 6.1 53.65C6.1 53.7386 6.24447 53.8111 6.42105 53.8111C6.59763 53.8111 6.74211 53.8836 6.74211 53.9722C6.74211 54.0608 7.03105 54.1333 7.38421 54.1333C7.73737 54.1333 8.02632 54.2058 8.02632 54.2944C8.02632 54.4006 12.9241 54.4556 22.3987 54.4556H36.7713L37.3277 53.897C37.6338 53.5899 37.8842 53.2274 37.8842 53.0914C37.8842 52.9556 37.9564 52.8444 38.0447 52.8444C38.133 52.8444 38.2053 52.6269 38.2053 52.3611C38.2053 52.0953 38.133 51.8778 38.0447 51.8778C37.9564 51.8778 37.8842 51.7666 37.8842 51.6308C37.8842 51.4948 37.6338 51.1323 37.3277 50.8252L36.7713 50.2667H22.7198C13.4592 50.2667 8.66842 50.2117 8.66842 50.1056C8.66842 50.0169 8.45171 49.9444 8.18684 49.9444C7.92197 49.9444 7.70526 49.8719 7.70526 49.7833C7.70526 49.6947 7.57668 49.6222 7.41969 49.6222C7.26253 49.6222 7.02993 49.4772 6.90263 49.3C6.77533 49.1228 6.57548 48.9778 6.45862 48.9778C6.16566 48.9778 5.45789 48.2423 5.45789 47.9378C5.45789 47.8009 5.38566 47.6889 5.29737 47.6889C5.20908 47.6889 5.13684 47.5439 5.13684 47.3667C5.13684 47.1894 5.06461 47.0444 4.97632 47.0444C4.88803 47.0444 4.81579 46.8994 4.81579 46.7222C4.81579 46.545 4.74355 46.4 4.65526 46.4C4.54932 46.4 4.49474 40.8148 4.49474 29.9667V13.5333H30.5H56.5053V28.6778C56.5053 38.6667 56.5598 43.8222 56.6658 43.8222C56.7541 43.8222 56.8263 44.0067 56.8263 44.2323C56.8263 44.4578 57.0037 44.8203 57.2204 45.0378C57.4371 45.2553 57.7983 45.4333 58.023 45.4333C58.2478 45.4333 58.4316 45.5058 58.4316 45.5944C58.4316 45.6831 58.5761 45.7556 58.7526 45.7556C58.9292 45.7556 59.0737 45.6831 59.0737 45.5944C59.0737 45.5058 59.2575 45.4333 59.4822 45.4333C59.707 45.4333 60.0681 45.2553 60.2849 45.0378C60.5016 44.8203 60.6789 44.4578 60.6789 44.2323C60.6789 44.0067 60.7512 43.8222 60.8395 43.8222C60.9454 43.8222 61 37.9148 61 26.4222C61 14.9297 60.9454 9.02222 60.8395 9.02222C60.7512 9.02222 60.6789 8.65972 60.6789 8.21667C60.6789 7.77361 60.6067 7.41111 60.5184 7.41111C60.4301 7.41111 60.3579 7.12111 60.3579 6.76667C60.3579 6.41222 60.2857 6.12222 60.1974 6.12222C60.1091 6.12222 60.0368 5.97722 60.0368 5.8C60.0368 5.62278 59.9646 5.47778 59.8763 5.47778C59.788 5.47778 59.7158 5.34873 59.7158 5.19116C59.7158 5.03343 59.5713 4.79998 59.3947 4.67222C59.2182 4.54446 59.0737 4.34613 59.0737 4.23126C59.0737 3.9382 56.7236 1.61111 56.4276 1.61111C56.2937 1.61111 56.1842 1.53861 56.1842 1.45C56.1842 1.36139 56.0397 1.28889 55.8632 1.28889C55.6866 1.28889 55.5421 1.21639 55.5421 1.12778C55.5421 1.03917 55.3976 0.966667 55.2211 0.966667C55.0445 0.966667 54.9 0.894167 54.9 0.805556C54.9 0.716944 54.7555 0.644444 54.5789 0.644444C54.4024 0.644444 54.2579 0.571944 54.2579 0.483333C54.2579 0.394722 53.9689 0.322222 53.6158 0.322222C53.2626 0.322222 52.9737 0.249722 52.9737 0.161111C52.9737 0.0544556 45.3755 0 30.5 0C15.6245 0 8.02632 0.0544556 8.02632 0.161111ZM10.2737 4.35C10.2737 4.43861 10.3872 4.51111 10.5259 4.51111C10.6647 4.51111 10.8814 4.61471 11.0075 4.74134C11.1336 4.86781 11.2368 5.08531 11.2368 5.22467C11.2368 5.36387 11.3091 5.47778 11.3974 5.47778C11.4881 5.47778 11.5579 5.93598 11.5579 6.53032C11.5579 7.51664 11.5227 7.61814 11.0013 8.14143C10.48 8.66472 10.3788 8.7 9.39609 8.7C8.80391 8.7 8.34737 8.62992 8.34737 8.53889C8.34737 8.45028 8.23388 8.37778 8.09518 8.37778C7.77076 8.37778 7.38421 7.98982 7.38421 7.66422C7.38421 7.52502 7.31197 7.41111 7.22368 7.41111C7.1354 7.41111 7.06316 7.00994 7.06316 6.51968C7.06316 5.71719 7.1187 5.57235 7.6197 5.06968C7.92567 4.76244 8.28685 4.51111 8.42233 4.51111C8.55766 4.51111 8.66842 4.43861 8.66842 4.35C8.66842 4.26139 9.02961 4.18889 9.47105 4.18889C9.9125 4.18889 10.2737 4.26139 10.2737 4.35ZM17.6579 4.35C17.6579 4.43861 17.7714 4.51111 17.9101 4.51111C18.0489 4.51111 18.2656 4.61471 18.3917 4.74134C18.5178 4.86781 18.6211 5.08531 18.6211 5.22467C18.6211 5.36387 18.6933 5.47778 18.7816 5.47778C18.8708 5.47778 18.9421 5.90746 18.9421 6.44444C18.9421 6.98143 18.8708 7.41111 18.7816 7.41111C18.6933 7.41111 18.6211 7.52308 18.6211 7.66003C18.6211 7.79697 18.4437 8.08697 18.227 8.30447C17.8828 8.65006 17.6892 8.7 16.6947 8.7C15.7003 8.7 15.5067 8.65006 15.1625 8.30447C14.9458 8.08697 14.7684 7.79697 14.7684 7.66003C14.7684 7.52308 14.6962 7.41111 14.6079 7.41111C14.5186 7.41111 14.4474 6.98143 14.4474 6.44444C14.4474 5.90746 14.5186 5.47778 14.6079 5.47778C14.6962 5.47778 14.7684 5.36387 14.7684 5.22467C14.7684 4.89907 15.155 4.51111 15.4794 4.51111C15.6181 4.51111 15.7316 4.43861 15.7316 4.35C15.7316 4.26042 16.1597 4.18889 16.6947 4.18889C17.2298 4.18889 17.6579 4.26042 17.6579 4.35ZM24.7211 4.35C24.7211 4.43861 24.8345 4.51111 24.9732 4.51111C25.2977 4.51111 25.6842 4.89907 25.6842 5.22467C25.6842 5.36387 25.7564 5.47778 25.8447 5.47778C25.9354 5.47778 26.0053 5.93598 26.0053 6.53032C26.0053 7.51664 25.9701 7.61814 25.4487 8.14143C24.9273 8.66472 24.8262 8.7 23.8435 8.7C23.2513 8.7 22.7947 8.62992 22.7947 8.53889C22.7947 8.45028 22.6812 8.37778 22.5426 8.37778C22.2181 8.37778 21.8316 7.98982 21.8316 7.66422C21.8316 7.52502 21.7593 7.41111 21.6711 7.41111C21.5818 7.41111 21.5105 6.98143 21.5105 6.44444C21.5105 5.90746 21.5818 5.47778 21.6711 5.47778C21.7593 5.47778 21.8316 5.36387 21.8316 5.22467C21.8316 4.89907 22.2181 4.51111 22.5426 4.51111C22.6812 4.51111 22.7947 4.43861 22.7947 4.35C22.7947 4.26042 23.2229 4.18889 23.7579 4.18889C24.2929 4.18889 24.7211 4.26042 24.7211 4.35ZM18.9421 21.75C18.9421 21.8396 18.514 21.9111 17.9789 21.9111C17.4439 21.9111 17.0158 21.9826 17.0158 22.0722C17.0158 22.1608 16.7991 22.2333 16.5342 22.2333C16.2693 22.2333 16.0526 22.3058 16.0526 22.3944C16.0526 22.4831 15.9241 22.5556 15.7671 22.5556C15.6099 22.5556 15.3773 22.7006 15.25 22.8778C15.1227 23.055 14.9246 23.2 14.8098 23.2C14.5377 23.2 12.8421 24.9018 12.8421 25.1749C12.8421 25.2901 12.6976 25.4889 12.5211 25.6167C12.3326 25.7531 12.2 26.0338 12.2 26.2967C12.2 26.5429 12.1278 26.7444 12.0395 26.7444C11.9512 26.7444 11.8789 26.8894 11.8789 27.0667C11.8789 27.2439 11.8067 27.3889 11.7184 27.3889C11.6301 27.3889 11.5579 27.7514 11.5579 28.1944C11.5579 28.6375 11.4857 29 11.3974 29C11.3022 29 11.2368 29.5908 11.2368 30.45C11.2368 31.3092 11.3022 31.9 11.3974 31.9C11.4857 31.9 11.5579 32.2625 11.5579 32.7056C11.5579 33.1486 11.6301 33.5111 11.7184 33.5111C11.8067 33.5111 11.8789 33.6561 11.8789 33.8333C11.8789 34.0106 11.9512 34.1556 12.0395 34.1556C12.1278 34.1556 12.2 34.3006 12.2 34.4778C12.2 34.655 12.2722 34.8 12.3605 34.8C12.4488 34.8 12.5211 34.945 12.5211 35.1222C12.5211 35.2994 12.5933 35.4444 12.6816 35.4444C12.7699 35.4444 12.8421 35.5551 12.8421 35.6903C12.8421 35.9901 14.1957 37.3778 14.488 37.3778C14.6032 37.3778 14.8017 37.5228 14.9289 37.7C15.0562 37.8772 15.2888 38.0222 15.446 38.0222C15.603 38.0222 15.7316 38.0947 15.7316 38.1833C15.7316 38.2719 15.8761 38.3444 16.0526 38.3444C16.2292 38.3444 16.3737 38.4169 16.3737 38.5056C16.3737 38.5942 16.5904 38.6667 16.8553 38.6667C17.1201 38.6667 17.3368 38.7392 17.3368 38.8278C17.3368 38.9328 19.7982 38.9889 24.4 38.9889C29.0018 38.9889 31.4632 38.9328 31.4632 38.8278C31.4632 38.7392 31.6799 38.6667 31.9447 38.6667C32.2096 38.6667 32.4263 38.5942 32.4263 38.5056C32.4263 38.4169 32.5708 38.3444 32.7474 38.3444C32.924 38.3444 33.0684 38.2719 33.0684 38.1833C33.0684 38.0947 33.197 38.0222 33.354 38.0222C33.5112 38.0222 33.7438 37.8772 33.8711 37.7C33.9984 37.5228 34.1972 37.3778 34.3131 37.3778C34.429 37.3778 34.7743 37.1264 35.0803 36.8192C35.3864 36.5121 35.6368 36.1656 35.6368 36.0493C35.6368 35.9329 35.7813 35.7333 35.9579 35.6056C36.1345 35.4778 36.2789 35.2443 36.2789 35.0866C36.2789 34.9291 36.3512 34.8 36.4395 34.8C36.5278 34.8 36.6 34.655 36.6 34.4778C36.6 34.3006 36.6722 34.1556 36.7605 34.1556C36.8488 34.1556 36.9211 33.9381 36.9211 33.6722C36.9211 33.4064 36.9933 33.1889 37.0816 33.1889C37.1708 33.1889 37.2421 32.7592 37.2421 32.2222C37.2421 31.6852 37.3134 31.2556 37.4026 31.2556C37.4909 31.2556 37.5632 30.8931 37.5632 30.45C37.5632 30.0069 37.4909 29.6444 37.4026 29.6444C37.3143 29.6444 37.2421 29.4994 37.2421 29.3222C37.2421 29.145 37.1699 29 37.0816 29C36.9933 29 36.9211 28.855 36.9211 28.6778C36.9211 28.4292 36.814 28.3556 36.4528 28.3556C36.1953 28.3556 35.9425 28.265 35.891 28.1542C35.8162 27.9931 35.7786 27.9931 35.7038 28.1542C35.6523 28.265 35.4304 28.3556 35.2106 28.3556C34.758 28.3556 34.3526 28.6926 34.3526 29.0691C34.3526 29.2083 34.2804 29.3222 34.1921 29.3222C34.0958 29.3222 34.0316 29.9667 34.0316 30.9333C34.0316 31.9 33.9674 32.5444 33.8711 32.5444C33.7828 32.5444 33.7105 32.6894 33.7105 32.8667C33.7105 33.0439 33.6383 33.1889 33.55 33.1889C33.4617 33.1889 33.3895 33.2996 33.3895 33.4347C33.3895 33.7546 32.0268 35.1222 31.7081 35.1222C31.5734 35.1222 31.4632 35.1947 31.4632 35.2833C31.4632 35.3719 31.3187 35.4444 31.1421 35.4444C30.9655 35.4444 30.8211 35.5169 30.8211 35.6056C30.8211 35.7103 28.5737 35.7667 24.4 35.7667C20.2263 35.7667 17.9789 35.7103 17.9789 35.6056C17.9789 35.5169 17.7971 35.4444 17.5746 35.4444C17.1205 35.4444 15.0895 33.5377 15.0895 33.1114C15.0895 32.9767 15.0172 32.8667 14.9289 32.8667C14.8291 32.8667 14.7684 31.9537 14.7684 30.45C14.7684 28.9464 14.8291 28.0333 14.9289 28.0333C15.0172 28.0333 15.0895 27.9043 15.0895 27.7467C15.0895 27.589 15.2339 27.3555 15.4105 27.2278C15.5871 27.1 15.7316 26.8977 15.7316 26.778C15.7316 26.4975 16.1276 26.1 16.4071 26.1C16.5263 26.1 16.728 25.955 16.8553 25.7778C16.9826 25.6006 17.2152 25.4556 17.3723 25.4556C17.5293 25.4556 17.6579 25.3831 17.6579 25.2944C17.6579 25.1929 18.7281 25.1333 20.5474 25.1333C22.3666 25.1333 23.4368 25.0737 23.4368 24.9722C23.4368 24.8836 23.5484 24.8111 23.6849 24.8111C23.8213 24.8111 24.1103 24.6331 24.327 24.4156C25.1473 23.5925 24.6084 21.9111 23.5243 21.9111C23.2996 21.9111 23.1158 21.8386 23.1158 21.75C23.1158 21.6509 22.3132 21.5889 21.0289 21.5889C19.7447 21.5889 18.9421 21.6509 18.9421 21.75ZM32.1053 21.75C32.1053 21.8396 31.6771 21.9111 31.1421 21.9111C30.6071 21.9111 30.1789 21.9826 30.1789 22.0722C30.1789 22.1608 30.0345 22.2333 29.8579 22.2333C29.6813 22.2333 29.5368 22.3058 29.5368 22.3944C29.5368 22.4831 29.336 22.5556 29.0907 22.5556C28.8288 22.5556 28.5491 22.6886 28.4132 22.8778C28.2859 23.055 28.0878 23.2 27.973 23.2C27.6807 23.2 26.0053 24.9118 26.0053 25.2103C26.0053 25.3452 25.933 25.4556 25.8447 25.4556C25.7564 25.4556 25.6842 25.6006 25.6842 25.7778C25.6842 25.955 25.612 26.1 25.5237 26.1C25.4354 26.1 25.3632 26.245 25.3632 26.4222C25.3632 26.5994 25.2909 26.7444 25.2026 26.7444C25.1143 26.7444 25.0421 26.9619 25.0421 27.2278C25.0421 27.4936 24.9699 27.7111 24.8816 27.7111C24.7923 27.7111 24.7211 28.1408 24.7211 28.6778C24.7211 29.2148 24.6498 29.6444 24.5605 29.6444C24.4722 29.6444 24.4 29.9344 24.4 30.2889C24.4 30.6433 24.4722 30.9333 24.5605 30.9333C24.6488 30.9333 24.7211 31.1178 24.7211 31.3434C24.7211 31.5689 24.8984 31.9314 25.1151 32.1489C25.8231 32.8596 27.6105 32.6318 27.6105 31.8309C27.6105 31.6917 27.6828 31.5778 27.7711 31.5778C27.8674 31.5778 27.9316 30.9333 27.9316 29.9667C27.9316 29 27.9958 28.3556 28.0921 28.3556C28.1804 28.3556 28.2526 28.154 28.2526 27.9078C28.2526 27.6449 28.3852 27.3642 28.5737 27.2278C28.7503 27.1 28.8947 26.8977 28.8947 26.778C28.8947 26.4975 29.2908 26.1 29.5702 26.1C29.6895 26.1 29.8911 25.955 30.0184 25.7778C30.1457 25.6006 30.3783 25.4556 30.5355 25.4556C30.6925 25.4556 30.8211 25.3831 30.8211 25.2944C30.8211 25.1896 33.1755 25.1333 37.5632 25.1333C41.9508 25.1333 44.3053 25.1896 44.3053 25.2944C44.3053 25.3831 44.4338 25.4556 44.5908 25.4556C44.748 25.4556 44.9806 25.6006 45.1079 25.7778C45.2352 25.955 45.4368 26.1 45.5561 26.1C45.8356 26.1 46.2316 26.4975 46.2316 26.778C46.2316 26.8977 46.3761 27.1 46.5526 27.2278C46.7292 27.3555 46.8737 27.589 46.8737 27.7467C46.8737 27.9043 46.9459 28.0333 47.0342 28.0333C47.1341 28.0333 47.1947 28.9464 47.1947 30.45C47.1947 31.9537 47.1341 32.8667 47.0342 32.8667C46.9459 32.8667 46.8737 32.9767 46.8737 33.1114C46.8737 33.5377 44.8427 35.4444 44.3886 35.4444C44.1661 35.4444 43.9842 35.5169 43.9842 35.6056C43.9842 35.7069 42.939 35.7667 41.1697 35.7667H38.355L37.7986 36.3252C37.0859 37.0406 37.019 37.9741 37.6362 38.5934C38.0288 38.9876 38.0406 38.9889 41.3283 38.9889C43.42 38.9889 44.6263 38.9299 44.6263 38.8278C44.6263 38.7392 44.843 38.6667 45.1079 38.6667C45.3728 38.6667 45.5895 38.5942 45.5895 38.5056C45.5895 38.4169 45.7339 38.3444 45.9105 38.3444C46.0871 38.3444 46.2316 38.2719 46.2316 38.1833C46.2316 38.0947 46.3602 38.0222 46.5172 38.0222C46.6743 38.0222 46.9069 37.8772 47.0342 37.7C47.1615 37.5228 47.3599 37.3778 47.4752 37.3778C47.7675 37.3778 49.1211 35.9901 49.1211 35.6903C49.1211 35.5551 49.1933 35.4444 49.2816 35.4444C49.3699 35.4444 49.4421 35.2994 49.4421 35.1222C49.4421 34.945 49.5143 34.8 49.6026 34.8C49.6909 34.8 49.7632 34.655 49.7632 34.4778C49.7632 34.3006 49.8354 34.1556 49.9237 34.1556C50.012 34.1556 50.0842 34.0106 50.0842 33.8333C50.0842 33.6561 50.1564 33.5111 50.2447 33.5111C50.333 33.5111 50.4053 33.1486 50.4053 32.7056C50.4053 32.2625 50.4775 31.9 50.5658 31.9C50.661 31.9 50.7263 31.3092 50.7263 30.45C50.7263 29.5908 50.661 29 50.5658 29C50.4775 29 50.4053 28.6375 50.4053 28.1944C50.4053 27.7514 50.333 27.3889 50.2447 27.3889C50.1564 27.3889 50.0842 27.2439 50.0842 27.0667C50.0842 26.8894 50.012 26.7444 49.9237 26.7444C49.8354 26.7444 49.7632 26.5429 49.7632 26.2967C49.7632 26.0338 49.6306 25.7531 49.4421 25.6167C49.2655 25.4889 49.1211 25.2901 49.1211 25.1749C49.1211 24.9018 47.4254 23.2 47.1533 23.2C47.0385 23.2 46.8405 23.055 46.7132 22.8778C46.5859 22.7006 46.3533 22.5556 46.1961 22.5556C46.0391 22.5556 45.9105 22.4831 45.9105 22.3944C45.9105 22.3058 45.6938 22.2333 45.4289 22.2333C45.1641 22.2333 44.9474 22.1608 44.9474 22.0722C44.9474 21.9826 44.5192 21.9111 43.9842 21.9111C43.4492 21.9111 43.0211 21.8396 43.0211 21.75C43.0211 21.6458 41.0947 21.5889 37.5632 21.5889C34.0316 21.5889 32.1053 21.6458 32.1053 21.75ZM43.3421 43.6611C43.3421 43.7497 43.2305 43.8222 43.0941 43.8222C42.9576 43.8222 42.6687 44.0002 42.452 44.2178L42.0579 44.6131V49.3V53.9869L42.452 54.3823C43.1599 55.0929 44.9474 54.8651 44.9474 54.0642C44.9474 53.925 45.0196 53.8111 45.1079 53.8111C45.2073 53.8111 45.2684 52.9519 45.2684 51.5556C45.2684 50.315 45.3055 49.3 45.3509 49.3C45.3962 49.3 47.3818 51.2575 49.7632 53.65L54.093 58H54.9051C55.9718 58 56.5053 57.5183 56.5053 56.5552C56.5053 55.9136 56.4205 55.8165 52.0105 51.3944C49.5384 48.9156 47.5158 46.8503 47.5158 46.8049C47.5158 46.7594 48.6387 46.7222 50.0112 46.7222C52.4467 46.7222 52.5162 46.7127 52.9007 46.3267C53.1907 46.0357 53.2947 45.7572 53.2947 45.2722C53.2947 44.5733 52.7581 43.8222 52.2585 43.8222C52.1221 43.8222 52.0105 43.7497 52.0105 43.6611C52.0105 43.5577 50.4587 43.5 47.6763 43.5C44.8939 43.5 43.3421 43.5577 43.3421 43.6611Z" fill="white"/>
</svg>
